<svg width="730" height="341" viewBox="0 0 730 341" fill="none" xmlns="http://www.w3.org/2000/svg">
<g filter="url(#filter0_d_36_120)">
<path d="M26.8584 324.084H12.5323V273.646H26.8584V324.084ZM81.9651 273.607L93.4892 308.495H94.0417L93.4102 287.42V273.607H106.908V324.084H88.2007L76.1242 288.17H75.5717L76.2031 309.56V324.084H62.6663V273.607H81.9651ZM152.772 324.084V312.165H163.388C166.124 312.165 168.164 311.428 169.505 309.955C170.847 308.481 171.518 306.377 171.518 303.64V293.932C171.518 291.195 170.847 289.104 169.505 287.657C168.164 286.183 166.124 285.446 163.388 285.446H152.772V273.646H163.901C171.294 273.646 176.807 275.396 180.437 278.895C184.095 282.368 185.923 287.38 185.923 293.932V303.68C185.923 310.257 184.108 315.309 180.477 318.835C176.846 322.334 171.321 324.084 163.901 324.084H152.772ZM142.708 324.084V273.646H156.797V324.084H142.708ZM234.609 324.084H220.283V273.646H234.609V324.084ZM266.905 324.084L280.915 273.646H302.187L316.04 324.084H301.635L292.005 283H291.097L281.31 324.084H266.905ZM280.126 313.152V302.259H302.74V313.152H280.126Z" fill="#F8993A"/>
<path d="M408.22 325.228C405.904 325.228 403.721 325.083 401.668 324.794C399.616 324.505 397.735 324.136 396.025 323.689C394.314 323.215 392.802 322.729 391.486 322.229L390.263 309.284C392.367 310.178 394.854 311.034 397.722 311.849C400.59 312.638 403.602 313.033 406.759 313.033C409.575 313.033 411.535 312.744 412.64 312.165C413.771 311.586 414.337 310.652 414.337 309.363V309.205C414.337 308.337 414.061 307.626 413.508 307.074C412.982 306.495 412.087 305.956 410.824 305.456C409.561 304.929 407.864 304.324 405.733 303.64C402.287 302.535 399.379 301.338 397.011 300.049C394.643 298.733 392.854 297.102 391.644 295.155C390.434 293.182 389.829 290.669 389.829 287.617V287.025C389.829 282.316 391.447 278.724 394.683 276.251C397.945 273.751 402.694 272.502 408.93 272.502C412.587 272.502 415.744 272.804 418.402 273.409C421.085 274.015 423.401 274.751 425.348 275.619L426.571 287.696C424.466 286.749 422.125 285.973 419.546 285.368C416.968 284.736 414.258 284.42 411.416 284.42C409.548 284.42 408.088 284.552 407.036 284.815C406.01 285.052 405.299 285.42 404.904 285.92C404.51 286.394 404.312 286.986 404.312 287.696V287.814C404.312 288.551 404.549 289.209 405.023 289.788C405.523 290.34 406.417 290.906 407.707 291.485C408.996 292.064 410.838 292.735 413.232 293.498C416.652 294.576 419.52 295.708 421.835 296.892C424.177 298.076 425.94 299.602 427.124 301.47C428.308 303.311 428.9 305.811 428.9 308.968V309.521C428.9 314.756 427.203 318.69 423.809 321.321C420.415 323.926 415.218 325.228 408.22 325.228ZM472.112 324.084V276.448H486.438V324.084H472.112ZM458.575 285.525V273.646H499.935V285.525H458.575ZM524.096 324.084L538.106 273.646H559.378L573.231 324.084H558.826L549.196 283H548.288L538.501 324.084H524.096ZM537.317 313.152V302.259H559.931V313.152H537.317ZM619.971 325.228C616.13 325.228 612.92 324.386 610.342 322.702C607.763 320.992 605.829 318.532 604.54 315.322C603.251 312.112 602.606 308.258 602.606 303.759V295.944C602.606 288.235 604.711 282.408 608.921 278.461C613.13 274.488 619.274 272.502 627.351 272.502C629.719 272.502 631.929 272.66 633.982 272.975C636.06 273.265 637.954 273.659 639.665 274.159C641.401 274.659 642.927 275.225 644.243 275.856L645.427 287.735C643.374 286.92 641.112 286.196 638.639 285.565C636.192 284.933 633.39 284.618 630.232 284.618C625.681 284.618 622.365 285.578 620.287 287.499C618.208 289.419 617.169 292.55 617.169 296.892V303.916C617.169 306.837 617.853 309.1 619.221 310.705C620.616 312.31 622.826 313.112 625.852 313.112C627.115 313.112 628.206 312.954 629.127 312.638C630.074 312.296 630.864 311.849 631.495 311.297C632.153 310.744 632.692 310.139 633.113 309.481V300.799L634.889 304.785L625.852 304.864V294.011H646.729V315.48H632.798C632.403 317.374 631.745 319.058 630.824 320.532C629.93 321.979 628.614 323.123 626.878 323.965C625.168 324.807 622.865 325.228 619.971 325.228ZM633.311 313.743H646.729V324.084H632.916L633.311 313.743ZM682.219 324.084V273.646H696.15V324.084H682.219ZM686.363 324.084V312.204H718.843V324.084H686.363ZM690.428 304.193V292.866H717.856V304.193H690.428ZM686.363 285.407V273.646H718.488V285.407H686.363Z" fill="#00AE4D"/>
<path d="M56.7207 24.1525C52.6087 21.6863 47.5098 18.2338 39.8614 18.2338C32.213 18.2338 32.213 20.4533 32.213 22.5084C32.213 31.7974 69.1391 34.9212 69.1391 59.8291C69.1391 84.7369 53.6778 86.6276 29.4168 86.6276C5.15581 86.6276 17.6564 85.2302 12.722 85.2302C7.78751 85.2302 7.86975 85.8056 5.56701 86.6276V59.007C11.4883 64.4325 17.8209 68.7071 27.3608 68.7071C36.9007 68.7071 41.8352 64.8435 41.8352 59.0892C41.8352 45.8544 4.90909 43.5526 4.90909 23.577C4.90909 3.60141 16.3405 0.395447 35.0092 0.395447C53.6778 0.395447 45.7827 1.79292 50.5527 1.79292C55.3227 1.79292 54.6647 1.71071 56.474 0.395447H56.803V24.1525H56.7207Z" fill="white"/>
<path d="M84.7648 84.7368C87.8077 83.4216 88.7124 80.5444 88.7124 76.1876V0.395325C91.0151 1.875 93.7291 2.61484 96.5253 2.61484C101.624 2.61484 111.658 0.395325 119.388 0.395325C147.761 0.395325 162.647 15.8497 162.647 30.3999C162.647 44.95 146.116 60.1578 120.951 60.1578C95.7851 60.1578 116.921 60.1578 114.947 59.829V76.1876C114.947 80.6266 115.934 83.5038 118.895 84.7368H84.6826H84.7648ZM114.947 40.3466C116.592 40.8398 118.319 41.0864 120.046 41.0042C128.928 41.0042 135.343 37.305 135.343 30.2354C135.343 23.1659 129.01 19.4667 120.046 19.4667C111.082 19.4667 116.592 19.6311 114.947 20.2065V40.3466Z" fill="white"/>
<path d="M296.946 43.5525C296.946 68.3782 268.326 86.7097 235.841 86.7097C203.356 86.7097 174.736 68.3782 174.736 43.5525C174.736 18.7269 203.356 0.395325 235.841 0.395325C268.326 0.395325 296.946 18.7269 296.946 43.5525ZM202.122 43.5525C202.122 55.7187 214.705 67.5561 235.841 67.5561C256.977 67.5561 269.56 55.7187 269.56 43.5525C269.56 31.3863 256.977 19.5489 235.841 19.5489C214.705 19.5489 202.122 31.3863 202.122 43.5525Z" fill="white"/>
<path d="M409.862 67.0629C409.862 71.2553 410.52 72.6528 413.316 74.2147C401.72 82.3529 386.917 86.6275 368.166 86.6275C334.941 86.6275 307.719 68.2138 307.719 43.4703C307.719 18.7269 334.941 0.395325 368.166 0.395325C401.392 0.395325 383.874 2.69704 387.411 2.69704C390.947 2.69704 392.263 1.875 394.237 0.395325V27.2761C387.082 22.6727 379.598 19.5489 368.166 19.5489C349.415 19.5489 335.106 28.3447 335.106 43.5525C335.106 58.7603 349.58 67.5561 368.166 67.5561C386.753 67.5561 378.611 66.8985 383.628 65.501V53.3348H361.669C357.722 53.3348 355.912 54.6501 353.692 56.3764V31.2219C355.912 32.9482 357.639 34.2634 361.669 34.2634H409.862V67.1451V67.0629Z" fill="white"/>
<path d="M544.244 43.5525C544.244 68.3782 515.624 86.7097 483.139 86.7097C450.654 86.7097 422.034 68.3782 422.034 43.5525C422.034 18.7269 450.736 0.395325 483.139 0.395325C515.542 0.395325 544.244 18.7269 544.244 43.5525ZM449.42 43.5525C449.42 55.7187 462.003 67.5561 483.139 67.5561C504.275 67.5561 516.858 55.7187 516.858 43.5525C516.858 31.3863 504.275 19.5489 483.139 19.5489C462.003 19.5489 449.42 31.3863 449.42 43.5525Z" fill="white"/>
<path d="M611.352 41.5795H611.681L630.925 2.28595H657.16C655.927 3.60122 655.186 5.2453 655.104 7.05379C655.104 9.27331 655.433 11.4106 655.927 13.5479L668.838 74.379C669.825 78.5714 672.046 82.7638 674.431 84.8189H640.054C641.288 83.7503 643.097 82.5172 643.097 80.2977C643.097 78.0782 643.097 76.9273 642.768 75.2011L637.011 35.8253H636.682L611.681 86.7096H610.365L584.953 35.8253H584.624L579.69 75.9409C579.443 77.4206 579.361 78.9002 579.361 80.3799C579.361 82.5994 581.088 83.8325 582.403 84.9012H548.191C550.576 82.846 552.632 78.6536 553.619 74.4612L566.695 13.6301C567.189 11.4928 567.436 9.35551 567.518 7.136C567.518 5.3275 566.695 3.68342 565.462 2.36815H592.519L611.434 41.6618H611.352V41.5795Z" fill="white"/>
<path d="M688.165 10.8352C688.165 6.39616 687.178 3.51901 684.218 2.28595H718.43C715.387 3.60122 714.482 6.47836 714.482 10.8352V76.1875C714.482 80.6265 715.469 83.5037 718.43 84.7367H684.218C687.26 83.4215 688.165 80.5443 688.165 76.1875V10.8352Z" fill="white"/>
<path d="M71.4418 163.406C71.1129 163.982 70.7839 164.639 70.6194 165.215C70.6194 165.79 71.0306 166.283 71.4418 166.694H57.6254L49.4013 148.938H49.2368L43.48 163.077C43.151 163.735 42.9043 164.475 42.7398 165.215C42.7398 165.79 43.151 166.283 43.5622 166.694H29.9925L8.3632 124.195C7.45855 122.551 6.30718 121.071 4.90909 119.756H25.2225C24.3179 120.331 23.4955 120.907 23.4955 121.893C23.5777 122.797 23.8245 123.619 24.3179 124.359L35.9138 149.514H36.0783L41.7529 135.539L35.2559 123.619C34.5157 122.222 33.6111 120.907 32.542 119.756H52.5265C51.6218 120.331 50.7994 120.907 50.7994 121.893C51.0461 122.797 51.3751 123.619 51.7863 124.359L62.8066 149.76H63.0533L75.0604 124.359C75.4716 123.537 75.8828 122.715 76.0473 121.893C76.0473 120.989 75.3894 120.413 74.4847 119.756H94.716C93.4001 120.66 92.331 121.811 91.5908 123.208L71.3596 163.324L71.4418 163.406Z" fill="white"/>
<path d="M161.249 143.266C161.249 157.405 144.965 167.763 126.543 167.763C108.121 167.763 91.8375 157.323 91.8375 143.266C91.8375 129.209 108.121 118.769 126.543 118.769C144.965 118.769 161.249 129.209 161.249 143.266ZM107.381 143.266C107.381 150.171 114.536 156.912 126.543 156.912C138.55 156.912 145.705 150.171 145.705 143.266C145.705 136.361 138.55 129.62 126.543 129.62C114.536 129.62 107.381 136.361 107.381 143.266Z" fill="white"/>
<path d="M167.663 118.769C168.979 119.591 170.542 120.085 172.104 120.002C174.983 120.002 180.658 118.769 185.099 118.769C199.491 118.769 207.386 125.592 207.386 134.059C207.386 142.526 205.741 143.184 199.82 143.759V143.924C210.182 145.486 215.281 155.021 217.172 162.338C217.501 164.228 218.653 165.872 220.298 166.859H199.573C200.395 165.872 200.889 164.557 200.724 163.324C200.724 155.186 192.5 150.253 182.549 148.198V162.009C182.549 164.475 183.125 166.201 184.852 166.859H165.443C167.17 166.119 167.663 164.475 167.663 162.009V118.769ZM182.631 138.992H184.934C188.882 138.992 191.925 136.772 191.925 133.895C191.925 131.018 188.964 128.798 184.934 128.798C180.904 128.798 183.371 128.798 182.631 128.798V138.992Z" fill="white"/>
<path d="M222.929 166.694C224.656 165.955 225.232 164.31 225.232 161.844V124.688C225.232 122.222 224.656 120.578 222.929 119.838H242.338C240.611 120.578 240.118 122.222 240.118 124.688V156.583H252.865C255.332 156.665 257.717 155.843 259.609 154.282V166.777H222.929V166.694Z" fill="white"/>
<path d="M267.175 118.769C268.244 119.674 269.642 120.085 271.04 120.085C274.001 120.085 279.758 118.769 285.432 118.769C301.469 118.769 318.575 128.141 318.575 142.937C318.575 157.734 306.075 166.694 283.541 166.694H264.872C266.599 165.954 267.175 164.31 267.175 161.844V118.769ZM282.06 155.843C294.725 155.843 302.949 151.651 302.949 142.937C302.949 134.224 292.752 129.62 282.06 129.62V155.843Z" fill="white"/>
<path d="M386.588 167.763C385.766 167.27 384.861 167.023 383.874 166.941C382.147 166.941 376.719 167.763 371.785 167.763C351.636 167.763 337.408 157.241 337.408 143.266C337.408 129.291 351.636 118.769 371.785 118.769C391.934 118.769 380.749 120.085 382.723 120.085C384.697 120.085 385.519 119.591 386.588 118.769V134.059C382.229 131.1 377.048 129.538 371.785 129.62C361.094 129.62 352.952 134.635 352.952 143.266C352.952 151.898 361.176 156.912 371.785 156.912C376.966 156.994 382.147 155.679 386.588 152.966V167.763Z" fill="white"/>
<path d="M444.157 119.838C442.43 120.578 441.854 122.222 441.854 124.688V152.144C441.854 162.666 431.738 167.845 419.402 167.845C407.066 167.845 396.951 162.666 396.951 152.144V124.688C396.951 122.222 396.375 120.578 394.648 119.838H414.057C412.33 120.578 411.836 122.222 411.836 124.688V151.076C411.836 154.61 415.372 156.912 419.32 156.912C423.268 156.912 426.804 154.693 426.804 151.076V124.688C426.804 122.222 426.228 120.578 424.583 119.838H444.157Z" fill="white"/>
<path d="M450.571 166.694C452.298 165.954 452.874 164.31 452.874 161.844V118.769C454.19 119.591 455.753 120.085 457.315 120.002C460.194 120.002 465.95 118.769 470.309 118.769C486.428 118.769 494.899 127.565 494.899 135.868C494.899 144.17 485.524 152.802 471.214 152.802C456.904 152.802 468.911 152.802 467.76 152.637V161.926C467.76 164.393 468.335 166.119 469.98 166.777H450.571V166.694ZM467.76 141.458C468.664 141.704 469.651 141.869 470.638 141.869C475.737 141.869 479.356 139.731 479.356 135.703C479.356 131.675 475.737 129.538 470.638 129.538C465.539 129.538 468.664 129.62 467.76 129.949V141.458Z" fill="white"/>
<path d="M507.071 166.694L531.579 146.061C536.595 141.869 541.283 138.909 541.283 134.635C541.283 130.36 537.829 128.88 533.306 128.88C528.782 128.88 525.328 131.1 525.328 134.635C525.328 138.169 525.657 136.936 526.233 137.923H508.222C509.127 136.032 509.949 134.059 510.525 132.086C512.088 127.565 516.282 118.687 533.881 118.687C551.481 118.687 557.073 126.003 557.073 135.375C557.073 144.746 549.672 147.705 542.188 153.459L537.664 156.912H552.797C554.442 156.994 556.004 156.254 556.991 154.939V166.612H507.071V166.694Z" fill="white"/>
<path d="M566.202 155.104C565.133 152.062 564.722 147.212 564.722 143.266C564.722 139.32 565.051 134.47 566.202 131.429C568.587 124.77 576.975 118.769 589.476 118.769C601.977 118.769 610.365 124.77 612.75 131.429C613.819 134.47 614.23 139.32 614.23 143.266C614.23 147.212 613.901 152.062 612.75 155.104C610.365 161.762 601.977 167.763 589.476 167.763C576.975 167.763 568.587 161.762 566.202 155.104ZM579.443 148.527C579.443 153.788 583.308 157.076 589.476 157.076C595.644 157.076 599.509 153.788 599.509 148.527V138.005C599.509 132.744 595.644 129.456 589.476 129.456C583.308 129.456 579.443 132.744 579.443 138.005V148.527Z" fill="white"/>
<path d="M617.602 166.694L642.11 146.061C647.044 141.869 651.814 138.909 651.814 134.635C651.814 130.36 648.36 128.88 643.837 128.88C639.314 128.88 635.86 131.1 635.86 134.635C635.86 138.169 636.189 136.936 636.764 137.923H618.754C619.658 136.032 620.398 134.059 620.974 132.086C622.537 127.565 626.731 118.687 644.331 118.687C661.93 118.687 667.522 126.003 667.522 135.375C667.522 144.746 660.121 147.705 652.637 153.459L648.114 156.912H663.246C664.891 156.994 666.453 156.254 667.44 154.939V166.612H617.602V166.694Z" fill="white"/>
<path d="M722.048 190.287H6.55389V232.375H722.048V190.287Z" fill="white"/>
<path d="M35.9138 220.867V202.618H32.4597V199.74H42.4931V202.618H39.039V220.867H35.9961H35.9138Z" fill="#0068B7"/>
<path d="M43.5622 220.867V199.823H46.6051V207.303C46.9341 206.81 47.2631 206.481 47.7565 206.152C48.2499 205.824 48.7434 205.659 49.4836 205.659C50.2237 205.659 50.2237 205.659 50.6349 205.824C51.0461 205.988 51.3751 206.152 51.6218 206.481C51.9508 206.81 52.1153 207.139 52.362 207.632C52.5265 208.125 52.6087 208.701 52.6087 209.358V220.867H49.5658V210.509C49.5658 209.934 49.4013 209.523 49.1546 209.194C48.9079 208.865 48.4967 208.701 48.0855 208.701C47.6743 208.701 47.0986 208.865 46.9341 209.194C46.6874 209.523 46.6051 210.098 46.6051 210.756V220.867H43.5622Z" fill="#0068B7"/>
<path d="M63.7935 214.455H57.7899V216.51C57.7899 217.003 57.9544 217.332 58.2011 217.579C58.4478 217.825 58.859 217.99 59.2702 217.99C59.6814 217.99 60.2571 217.825 60.4216 217.497C60.5861 217.168 60.7506 216.839 60.7506 216.51H63.7935C63.7935 217.825 63.3823 218.894 62.5598 219.716C62.1486 220.127 61.6552 220.456 61.1618 220.702C60.6683 220.949 60.0104 221.031 59.2702 221.031C58.5301 221.031 57.5432 220.867 56.8852 220.456C56.2273 220.045 55.7339 219.552 55.3227 218.894C55.0759 218.483 54.9937 218.072 54.9115 217.497C54.9115 217.003 54.8292 216.428 54.8292 215.77V210.838C54.8292 210.263 54.8292 209.687 54.9115 209.112C54.9115 208.618 55.1582 208.125 55.3227 207.714C55.6516 207.057 56.1451 206.563 56.8852 206.152C57.5432 205.741 58.3656 205.577 59.2702 205.577C60.1749 205.577 60.5861 205.659 61.1618 205.906C61.7374 206.152 62.2309 206.481 62.5598 206.892C63.3823 207.796 63.7112 208.865 63.7112 210.263V214.373L63.7935 214.455ZM57.7899 212.153H60.7506V210.427C60.7506 209.852 60.5861 209.44 60.3394 209.112C60.0926 208.865 59.6814 208.701 59.2702 208.701C58.859 208.701 58.4478 208.865 58.2011 209.112C57.9544 209.358 57.7899 209.852 57.7899 210.427V212.153Z" fill="#0068B7"/>
<path d="M71.524 220.867V205.824H74.567V207.303C74.8959 206.81 75.2249 206.481 75.7183 206.152C76.2118 205.824 76.7052 205.659 77.4454 205.659C78.1855 205.659 78.679 205.824 79.0902 206.152C79.5014 206.481 79.9126 206.81 80.1593 207.221C80.5705 206.81 80.9817 206.481 81.3929 206.152C81.8864 205.824 82.4621 205.741 83.2845 205.741C84.1069 205.741 84.0246 205.741 84.4358 205.906C84.847 206.07 85.176 206.235 85.505 206.563C85.8339 206.892 86.0807 207.221 86.2451 207.714C86.4096 208.207 86.5741 208.783 86.5741 209.441V220.949H83.5312V210.591C83.5312 210.016 83.3667 209.605 83.12 209.276C82.8733 208.947 82.4621 208.783 82.0509 208.783C81.6397 208.783 81.064 208.947 80.8995 209.276C80.6528 209.605 80.5705 210.18 80.5705 210.838V220.949H77.5276V210.591C77.5276 210.016 77.3631 209.605 77.1164 209.276C76.8697 208.947 76.4585 208.783 76.0473 208.783C75.6361 208.783 75.0604 208.947 74.8959 209.276C74.6492 209.605 74.567 210.18 74.567 210.838V220.949H71.524V220.867Z" fill="#0068B7"/>
<path d="M88.7946 210.92C88.7946 210.345 88.7946 209.769 88.8769 209.194C88.8769 208.701 89.1236 208.207 89.2881 207.796C89.617 207.139 90.1105 206.646 90.8506 206.235C91.5086 205.824 92.331 205.659 93.2356 205.659C94.1403 205.659 94.9627 205.824 95.6206 206.235C96.2785 206.646 96.772 207.139 97.1832 207.796C97.4299 208.207 97.5121 208.618 97.5944 209.194C97.5944 209.687 97.6766 210.263 97.6766 210.92V215.852C97.6766 216.428 97.6766 217.003 97.5944 217.579C97.5944 218.072 97.3476 218.565 97.1832 218.976C96.8542 219.634 96.2785 220.127 95.6206 220.538C94.9627 220.949 94.1403 221.114 93.2356 221.114C92.331 221.114 91.5086 220.949 90.8506 220.538C90.1927 220.127 89.6993 219.634 89.2881 218.976C89.0413 218.565 88.9591 218.154 88.8769 217.579C88.8769 217.086 88.7946 216.51 88.7946 215.852V210.92ZM91.8375 216.263C91.8375 216.839 92.002 217.25 92.2487 217.579C92.4954 217.825 92.9067 217.99 93.3179 217.99C93.7291 217.99 94.1403 217.825 94.387 217.579C94.6337 217.332 94.7982 216.839 94.7982 216.263V210.345C94.7982 209.769 94.6337 209.358 94.387 209.029C94.1403 208.783 93.7291 208.618 93.3179 208.618C92.9067 208.618 92.4954 208.783 92.2487 209.029C92.002 209.276 91.8375 209.769 91.8375 210.345V216.263Z" fill="#0068B7"/>
<path d="M105.489 210.016C105.489 209.523 105.325 209.112 104.996 208.865C104.667 208.618 104.338 208.454 103.927 208.454C103.516 208.454 103.105 208.618 102.858 208.947C102.611 209.276 102.447 209.605 102.447 210.016C102.447 210.427 102.447 210.591 102.693 210.838C102.858 211.084 103.187 211.331 103.762 211.578L105.572 212.318C106.723 212.729 107.463 213.304 107.874 214.126C108.286 214.866 108.532 215.688 108.532 216.592C108.532 217.496 108.45 217.825 108.203 218.318C107.957 218.894 107.628 219.305 107.299 219.716C106.97 220.127 106.394 220.456 105.901 220.702C105.325 220.949 104.749 221.031 104.091 221.031C102.858 221.031 101.871 220.62 101.048 219.88C100.637 219.469 100.308 219.058 100.062 218.483C99.8149 217.907 99.6504 217.25 99.6504 216.51H102.529C102.529 216.921 102.693 217.332 102.94 217.661C103.187 217.99 103.598 218.154 104.174 218.154C104.749 218.154 104.996 217.99 105.325 217.743C105.654 217.496 105.818 217.085 105.818 216.51C105.818 215.935 105.736 215.77 105.489 215.441C105.243 215.112 104.914 214.866 104.338 214.701L102.858 214.208C101.871 213.879 101.131 213.304 100.637 212.646C100.062 211.907 99.8149 211.084 99.8149 210.098C99.8149 209.112 99.8971 208.865 100.144 208.372C100.391 207.796 100.72 207.385 101.131 206.974C101.542 206.563 101.953 206.317 102.529 206.07C103.022 205.823 103.598 205.741 104.256 205.741C104.914 205.741 105.407 205.823 105.983 206.07C106.476 206.317 106.97 206.563 107.299 206.974C107.71 207.385 107.957 207.796 108.203 208.372C108.45 208.947 108.532 209.523 108.532 210.098H105.654L105.489 210.016Z" fill="#0068B7"/>
<path d="M110.424 205.823V201.302H113.467V205.823H115.358V208.207H113.467V216.51C113.467 216.839 113.467 217.168 113.549 217.332C113.549 217.496 113.714 217.661 113.878 217.743C114.043 217.825 114.207 217.907 114.454 217.907C114.7 217.907 114.947 217.907 115.276 217.907V220.785H114.043C113.385 220.785 112.809 220.702 112.315 220.456C111.822 220.209 111.493 219.963 111.246 219.634C111 219.305 110.753 218.894 110.671 218.483C110.506 218.072 110.506 217.661 110.506 217.25V208.125H109.026V205.741H110.506L110.424 205.823Z" fill="#0068B7"/>
<path d="M130.737 214.455H124.734V216.51C124.734 217.003 124.898 217.332 125.145 217.579C125.392 217.825 125.803 217.99 126.214 217.99C126.625 217.99 127.201 217.825 127.365 217.497C127.53 217.168 127.694 216.839 127.694 216.51H130.737C130.737 217.825 130.326 218.894 129.504 219.716C129.093 220.127 128.599 220.456 128.106 220.702C127.612 220.949 126.954 221.031 126.214 221.031C125.474 221.031 124.487 220.867 123.829 220.456C123.171 220.045 122.678 219.552 122.267 218.894C122.02 218.483 121.938 218.072 121.855 217.497C121.855 217.003 121.773 216.428 121.773 215.77V210.838C121.773 210.263 121.773 209.687 121.855 209.112C121.855 208.618 122.102 208.125 122.267 207.714C122.596 207.057 123.089 206.563 123.829 206.152C124.487 205.741 125.309 205.577 126.214 205.577C127.119 205.577 127.53 205.659 128.106 205.906C128.681 206.152 129.175 206.481 129.504 206.892C130.326 207.796 130.655 208.865 130.655 210.263V214.373L130.737 214.455ZM124.734 212.153H127.694V210.427C127.694 209.852 127.53 209.44 127.283 209.112C127.037 208.865 126.625 208.701 126.214 208.701C125.803 208.701 125.392 208.865 125.145 209.112C124.898 209.358 124.734 209.852 124.734 210.427V212.153Z" fill="#0068B7"/>
<path d="M138.632 220.867V219.305C138.221 219.88 137.81 220.291 137.399 220.538C136.988 220.867 136.412 220.949 135.672 220.949C134.932 220.949 134.932 220.949 134.603 220.785C134.274 220.702 133.862 220.456 133.534 220.209C133.205 219.963 132.958 219.552 132.711 218.976C132.464 218.401 132.382 217.743 132.382 216.921C132.382 216.099 132.382 215.359 132.629 214.702C132.793 214.044 133.04 213.551 133.369 213.057C133.698 212.646 134.191 212.318 134.849 212.153C135.507 211.989 136.247 211.824 137.152 211.824H137.481C137.563 211.824 137.728 211.824 137.81 211.824C137.892 211.824 138.057 211.824 138.139 211.824C138.221 211.824 138.386 211.824 138.55 211.824V210.263C138.55 209.769 138.468 209.358 138.221 209.029C137.975 208.701 137.646 208.536 137.07 208.536C136.494 208.536 136.33 208.701 136.001 208.947C135.672 209.194 135.425 209.605 135.343 210.098H132.382C132.382 208.783 132.876 207.632 133.78 206.81C134.685 205.988 134.685 206.07 135.178 205.906C135.754 205.659 136.33 205.577 137.07 205.577C137.81 205.577 138.303 205.659 138.879 205.906C139.455 206.07 139.948 206.399 140.359 206.81C140.771 207.221 141.1 207.714 141.346 208.29C141.593 208.865 141.675 209.605 141.675 210.345V220.785H138.632V220.867ZM138.632 214.373C138.303 214.373 138.057 214.291 137.81 214.291C137.152 214.291 136.576 214.455 136.165 214.784C135.672 215.113 135.507 215.688 135.507 216.428C135.507 217.168 135.672 217.497 135.918 217.825C136.165 218.154 136.576 218.319 137.07 218.319C137.563 218.319 137.975 218.154 138.303 217.825C138.55 217.497 138.715 217.003 138.715 216.428V214.373H138.632Z" fill="#0068B7"/>
<path d="M143.896 220.867V205.824H146.939V207.385C147.514 206.81 148.172 206.399 148.748 206.07C149.324 205.741 150.064 205.577 150.969 205.577V208.783C150.64 208.701 150.393 208.618 150.064 208.618C149.735 208.618 149.406 208.618 149.077 208.783C148.748 208.947 148.419 209.112 148.09 209.358C147.761 209.605 147.514 209.934 147.35 210.345C147.185 210.756 147.021 211.249 147.021 211.907V220.785H143.978L143.896 220.867Z" fill="#0068B7"/>
<path d="M152.12 205.823V201.302H155.163V205.823H157.054V208.207H155.163V216.51C155.163 216.839 155.163 217.168 155.245 217.332C155.245 217.496 155.41 217.661 155.574 217.743C155.739 217.825 155.903 217.907 156.15 217.907C156.396 217.907 156.643 217.907 156.972 217.907V220.785H155.739C155.081 220.785 154.505 220.702 154.011 220.456C153.518 220.209 153.189 219.963 152.942 219.634C152.696 219.305 152.449 218.894 152.367 218.483C152.202 218.072 152.202 217.661 152.202 217.25V208.125H150.722V205.741H152.202L152.12 205.823Z" fill="#0068B7"/>
<path d="M158.124 220.867V199.823H161.166V207.303C161.495 206.81 161.824 206.481 162.318 206.152C162.811 205.824 163.305 205.659 164.045 205.659C164.785 205.659 164.785 205.659 165.196 205.824C165.607 205.988 165.936 206.152 166.183 206.481C166.512 206.81 166.677 207.139 166.923 207.632C167.088 208.125 167.17 208.701 167.17 209.358V220.867H164.127V210.509C164.127 209.934 163.963 209.523 163.716 209.194C163.469 208.865 163.058 208.701 162.647 208.701C162.236 208.701 161.66 208.865 161.495 209.194C161.249 209.523 161.166 210.098 161.166 210.756V220.867H158.124Z" fill="#0068B7"/>
<path d="M169.719 214.126V211.084H178.601V214.126H169.719Z" fill="#0068B7"/>
<path d="M181.562 220.867V208.207H180.082V205.823H181.562V203.768C181.562 203.029 181.644 202.453 181.891 201.96C182.138 201.467 182.385 201.056 182.796 200.727C183.125 200.398 183.536 200.151 184.029 199.987C184.523 199.823 184.934 199.74 185.427 199.74H186.826V202.618H185.427C184.852 202.618 184.523 202.946 184.523 203.686V205.906H186.743V208.29H184.523V220.949H181.48L181.562 220.867Z" fill="#0068B7"/>
<path d="M187.73 220.867V205.824H190.773V207.385C191.349 206.81 192.007 206.399 192.582 206.07C193.158 205.741 193.898 205.577 194.803 205.577V208.783C194.474 208.701 194.227 208.618 193.898 208.618C193.569 208.618 193.24 208.618 192.911 208.783C192.582 208.947 192.253 209.112 191.924 209.358C191.595 209.605 191.349 209.934 191.184 210.345C191.02 210.756 190.855 211.249 190.855 211.907V220.785H187.812L187.73 220.867Z" fill="#0068B7"/>
<path d="M195.954 202.782V199.74H198.997V202.782H195.954ZM195.954 220.867V205.823H198.997V220.867H195.954Z" fill="#0068B7"/>
<path d="M210.264 214.455H204.261V216.51C204.261 217.003 204.425 217.332 204.672 217.579C204.919 217.825 205.33 217.99 205.741 217.99C206.152 217.99 206.728 217.825 206.892 217.497C207.057 217.168 207.221 216.839 207.221 216.51H210.264C210.264 217.825 209.853 218.894 209.031 219.716C208.619 220.127 208.126 220.456 207.632 220.702C207.139 220.949 206.481 221.031 205.741 221.031C205.001 221.031 204.014 220.867 203.356 220.456C202.698 220.045 202.205 219.552 201.793 218.894C201.547 218.483 201.464 218.072 201.382 217.497C201.382 217.003 201.3 216.428 201.3 215.77V210.838C201.3 210.263 201.3 209.687 201.382 209.112C201.382 208.618 201.629 208.125 201.793 207.714C202.122 207.057 202.616 206.563 203.356 206.152C204.014 205.741 204.836 205.577 205.741 205.577C206.646 205.577 207.057 205.659 207.632 205.906C208.208 206.152 208.702 206.481 209.031 206.892C209.853 207.796 210.182 208.865 210.182 210.263V214.373L210.264 214.455ZM204.261 212.153H207.221V210.427C207.221 209.852 207.057 209.44 206.81 209.112C206.563 208.865 206.152 208.701 205.741 208.701C205.33 208.701 204.919 208.865 204.672 209.112C204.425 209.358 204.261 209.852 204.261 210.427V212.153Z" fill="#0068B7"/>
<path d="M212.485 220.867V205.824H215.528V207.303C215.856 206.81 216.185 206.481 216.679 206.152C217.172 205.824 217.666 205.659 218.406 205.659C219.146 205.659 219.146 205.659 219.557 205.824C219.969 205.988 220.298 206.152 220.544 206.481C220.873 206.81 221.038 207.139 221.284 207.632C221.449 208.125 221.531 208.701 221.531 209.358V220.867H218.488V210.509C218.488 209.934 218.324 209.523 218.077 209.194C217.83 208.865 217.419 208.701 217.008 208.701C216.597 208.701 216.021 208.865 215.856 209.194C215.61 209.523 215.528 210.098 215.528 210.756V220.867H212.485Z" fill="#0068B7"/>
<path d="M230.002 220.867V219.469C229.837 219.716 229.591 219.88 229.426 220.045C229.262 220.209 229.015 220.374 228.85 220.538C228.604 220.702 228.357 220.785 228.11 220.867C227.864 220.949 227.535 220.949 227.123 220.949C225.89 220.949 224.985 220.456 224.492 219.552C224.327 219.223 224.163 218.812 224.081 218.319C224.081 217.825 223.998 217.168 223.998 216.346V210.674C223.998 209.605 223.998 208.783 224.081 208.29C224.163 207.303 224.656 206.563 225.479 206.07C225.89 205.824 226.383 205.659 227.206 205.659C228.028 205.659 228.357 205.824 228.768 206.07C229.262 206.317 229.591 206.728 230.002 207.221V199.823H233.045V220.867H230.002ZM226.959 215.935C226.959 216.51 227.041 217.003 227.288 217.414C227.535 217.825 227.864 217.99 228.439 217.99C229.015 217.99 229.262 217.825 229.508 217.497C229.755 217.168 229.92 216.674 229.92 216.181V210.345C229.92 209.852 229.755 209.523 229.508 209.194C229.262 208.865 228.85 208.701 228.439 208.701C228.028 208.701 227.452 208.865 227.288 209.194C227.041 209.523 226.959 209.934 226.959 210.427V215.935Z" fill="#0068B7"/>
<path d="M235.348 199.823H238.39V216.674C238.39 217.25 238.473 217.661 238.719 217.825C238.966 217.99 239.295 218.154 239.871 218.236V221.114C239.213 221.114 238.555 221.114 237.979 220.949C237.404 220.867 236.992 220.62 236.581 220.291C236.17 219.963 235.923 219.552 235.676 219.058C235.43 218.565 235.348 217.825 235.348 216.921V199.905V199.823Z" fill="#0068B7"/>
<path d="M239.706 205.823H242.914L244.97 215.195L247.026 205.823H250.151L245.792 223.415C245.628 224.073 245.381 224.648 245.134 225.059C244.887 225.47 244.476 225.881 244.147 226.128C243.736 226.375 243.407 226.621 242.914 226.703C242.502 226.786 242.091 226.868 241.598 226.868H240.775V223.991H241.433C241.762 223.991 242.009 223.991 242.174 223.908C242.42 223.908 242.585 223.662 242.749 223.415C242.914 223.169 243.078 222.758 243.16 222.264C243.243 221.771 243.489 221.031 243.654 220.209L239.542 205.906L239.706 205.823Z" fill="#0068B7"/>
<path d="M262.405 210.016C262.405 209.523 262.24 209.112 261.911 208.865C261.582 208.618 261.253 208.454 260.842 208.454C260.431 208.454 260.02 208.618 259.773 208.947C259.526 209.276 259.362 209.605 259.362 210.016C259.362 210.427 259.362 210.591 259.609 210.838C259.773 211.084 260.102 211.331 260.678 211.578L262.487 212.318C263.638 212.729 264.379 213.304 264.79 214.126C265.201 214.866 265.448 215.688 265.448 216.592C265.448 217.496 265.365 217.825 265.119 218.318C264.872 218.894 264.543 219.305 264.214 219.716C263.885 220.127 263.309 220.456 262.816 220.702C262.24 220.949 261.665 221.031 261.007 221.031C259.773 221.031 258.786 220.62 257.964 219.88C257.553 219.469 257.224 219.058 256.977 218.483C256.73 217.907 256.566 217.25 256.566 216.51H259.444C259.444 216.921 259.609 217.332 259.855 217.661C260.102 217.99 260.513 218.154 261.089 218.154C261.665 218.154 261.911 217.99 262.24 217.743C262.569 217.496 262.734 217.085 262.734 216.51C262.734 215.935 262.651 215.77 262.405 215.441C262.158 215.112 261.829 214.866 261.253 214.701L259.773 214.208C258.786 213.879 258.046 213.304 257.553 212.646C256.977 211.907 256.73 211.084 256.73 210.098C256.73 209.112 256.812 208.865 257.059 208.372C257.306 207.796 257.635 207.385 258.046 206.974C258.457 206.563 258.868 206.317 259.444 206.07C259.938 205.823 260.513 205.741 261.171 205.741C261.829 205.741 262.323 205.823 262.898 206.07C263.392 206.317 263.885 206.563 264.214 206.974C264.625 207.385 264.872 207.796 265.119 208.372C265.365 208.947 265.448 209.523 265.448 210.098H262.569L262.405 210.016Z" fill="#0068B7"/>
<path d="M267.339 226.95V205.906H270.382V207.303C270.793 206.892 271.122 206.481 271.534 206.235C271.945 205.906 272.52 205.823 273.261 205.823C274.494 205.823 275.399 206.317 275.892 207.221C276.057 207.55 276.221 207.961 276.303 208.454C276.386 208.947 276.386 209.605 276.386 210.427V216.099C276.386 217.168 276.386 217.99 276.303 218.483C276.221 219.469 275.728 220.209 274.905 220.702C274.494 220.949 273.918 221.113 273.178 221.113C272.438 221.113 272.027 220.949 271.616 220.702C271.122 220.456 270.793 220.045 270.382 219.552V226.95H267.339ZM273.343 210.756C273.343 210.18 273.261 209.687 273.014 209.276C272.767 208.865 272.438 208.701 271.862 208.701C271.287 208.701 271.04 208.865 270.793 209.194C270.547 209.523 270.382 210.016 270.382 210.509V216.346C270.382 216.839 270.547 217.168 270.793 217.496C271.04 217.825 271.451 217.99 271.862 217.99C272.274 217.99 272.849 217.825 273.014 217.496C273.261 217.168 273.343 216.757 273.343 216.263V210.756Z" fill="#0068B7"/>
<path d="M278.606 210.92C278.606 210.345 278.606 209.769 278.688 209.194C278.688 208.701 278.935 208.207 279.1 207.796C279.429 207.139 279.922 206.646 280.662 206.235C281.32 205.824 282.143 205.659 283.047 205.659C283.952 205.659 284.774 205.824 285.432 206.235C286.09 206.646 286.584 207.139 286.995 207.796C287.241 208.207 287.324 208.618 287.406 209.194C287.406 209.687 287.488 210.263 287.488 210.92V215.852C287.488 216.428 287.488 217.003 287.406 217.579C287.406 218.072 287.159 218.565 286.995 218.976C286.666 219.634 286.09 220.127 285.432 220.538C284.774 220.949 283.952 221.114 283.047 221.114C282.143 221.114 281.32 220.949 280.662 220.538C280.004 220.127 279.511 219.634 279.1 218.976C278.853 218.565 278.771 218.154 278.688 217.579C278.688 217.086 278.606 216.51 278.606 215.852V210.92ZM281.649 216.263C281.649 216.839 281.814 217.25 282.06 217.579C282.307 217.825 282.718 217.99 283.129 217.99C283.541 217.99 283.952 217.825 284.199 217.579C284.445 217.332 284.61 216.839 284.61 216.263V210.345C284.61 209.769 284.445 209.358 284.199 209.029C283.952 208.783 283.541 208.618 283.129 208.618C282.718 208.618 282.307 208.783 282.06 209.029C281.814 209.276 281.649 209.769 281.649 210.345V216.263Z" fill="#0068B7"/>
<path d="M289.791 220.867V205.824H292.834V207.385C293.409 206.81 294.067 206.399 294.643 206.07C295.219 205.741 295.959 205.577 296.864 205.577V208.783C296.535 208.701 296.288 208.618 295.959 208.618C295.63 208.618 295.301 208.618 294.972 208.783C294.643 208.947 294.314 209.112 293.985 209.358C293.656 209.605 293.409 209.934 293.245 210.345C293.081 210.756 292.916 211.249 292.916 211.907V220.785H289.873L289.791 220.867Z" fill="#0068B7"/>
<path d="M298.015 205.823V201.302H301.058V205.823H302.949V208.207H301.058V216.51C301.058 216.839 301.058 217.168 301.14 217.332C301.14 217.496 301.305 217.661 301.469 217.743C301.633 217.825 301.798 217.907 302.045 217.907C302.291 217.907 302.538 217.907 302.867 217.907V220.785H301.633C300.976 220.785 300.4 220.702 299.906 220.456C299.413 220.209 299.084 219.963 298.837 219.634C298.591 219.305 298.344 218.894 298.262 218.483C298.097 218.072 298.097 217.661 298.097 217.25V208.125H296.617V205.741H298.097L298.015 205.823Z" fill="#0068B7"/>
<path d="M309.611 202.782V199.74H312.654V202.782H309.611ZM309.611 220.867V205.823H312.654V220.867H309.611Z" fill="#0068B7"/>
<path d="M315.121 220.867V205.824H318.164V207.303C318.493 206.81 318.822 206.481 319.315 206.152C319.809 205.824 320.302 205.659 321.042 205.659C321.783 205.659 321.783 205.659 322.194 205.824C322.605 205.988 322.934 206.152 323.181 206.481C323.51 206.81 323.674 207.139 323.921 207.632C324.085 208.125 324.168 208.701 324.168 209.358V220.867H321.125V210.509C321.125 209.934 320.96 209.523 320.714 209.194C320.467 208.865 320.056 208.701 319.644 208.701C319.233 208.701 318.657 208.865 318.493 209.194C318.246 209.523 318.164 210.098 318.164 210.756V220.867H315.121Z" fill="#0068B7"/>
<path d="M346.701 205.823L343.165 220.867H340.533L338.889 211.989L337.244 220.867H334.612L331.076 205.823H334.283L336.092 215.113L337.819 205.823H340.204L341.767 215.113L343.576 205.823H346.784H346.701Z" fill="#0068B7"/>
<path d="M348.017 220.867V199.823H351.06V207.303C351.389 206.81 351.718 206.481 352.212 206.152C352.705 205.824 353.198 205.659 353.939 205.659C354.679 205.659 354.679 205.659 355.09 205.824C355.501 205.988 355.83 206.152 356.077 206.481C356.406 206.81 356.57 207.139 356.817 207.632C356.982 208.125 357.064 208.701 357.064 209.358V220.867H354.021V210.509C354.021 209.934 353.856 209.523 353.61 209.194C353.363 208.865 352.952 208.701 352.541 208.701C352.129 208.701 351.554 208.865 351.389 209.194C351.142 209.523 351.06 210.098 351.06 210.756V220.867H348.017Z" fill="#0068B7"/>
<path d="M359.531 202.782V199.74H362.574V202.782H359.531ZM359.531 220.867V205.823H362.574V220.867H359.531Z" fill="#0068B7"/>
<path d="M368.249 216.51C368.249 217.003 368.413 217.332 368.66 217.579C368.907 217.825 369.318 217.99 369.729 217.99C370.14 217.99 370.716 217.825 370.88 217.497C371.045 217.168 371.209 216.839 371.209 216.51H374.252C374.252 217.825 373.841 218.894 373.019 219.716C372.607 220.127 372.114 220.456 371.62 220.702C371.127 220.949 370.469 221.031 369.729 221.031C368.989 221.031 368.002 220.867 367.344 220.456C366.686 220.045 366.193 219.552 365.781 218.894C365.535 218.483 365.452 218.072 365.37 217.497C365.37 217.003 365.288 216.428 365.288 215.77V210.838C365.288 210.263 365.288 209.687 365.37 209.112C365.37 208.618 365.617 208.125 365.781 207.714C366.11 207.057 366.604 206.563 367.344 206.152C368.002 205.741 368.824 205.577 369.729 205.577C370.634 205.577 371.045 205.659 371.62 205.906C372.196 206.152 372.69 206.481 373.019 206.892C373.841 207.796 374.17 208.947 374.17 210.345H371.127C371.127 209.769 370.963 209.276 370.716 209.029C370.469 208.783 370.058 208.618 369.647 208.618C369.236 208.618 368.824 208.783 368.578 209.029C368.331 209.276 368.166 209.769 368.166 210.345V216.51H368.249Z" fill="#0068B7"/>
<path d="M375.65 220.867V199.823H378.693V207.303C379.022 206.81 379.351 206.481 379.844 206.152C380.338 205.824 380.831 205.659 381.571 205.659C382.312 205.659 382.312 205.659 382.723 205.824C383.134 205.988 383.463 206.152 383.71 206.481C384.039 206.81 384.203 207.139 384.45 207.632C384.614 208.125 384.697 208.701 384.697 209.358V220.867H381.654V210.509C381.654 209.934 381.489 209.523 381.243 209.194C380.996 208.865 380.585 208.701 380.173 208.701C379.762 208.701 379.187 208.865 379.022 209.194C378.775 209.523 378.693 210.098 378.693 210.756V220.867H375.65Z" fill="#0068B7"/>
<path d="M392.674 226.95V205.906H395.717V207.303C396.128 206.892 396.457 206.481 396.868 206.235C397.279 205.906 397.855 205.823 398.595 205.823C399.829 205.823 400.734 206.317 401.227 207.221C401.391 207.55 401.556 207.961 401.638 208.454C401.72 208.947 401.72 209.605 401.72 210.427V216.099C401.72 217.168 401.72 217.99 401.638 218.483C401.556 219.469 401.063 220.209 400.24 220.702C399.829 220.949 399.253 221.113 398.513 221.113C397.773 221.113 397.362 220.949 396.95 220.702C396.457 220.456 396.128 220.045 395.717 219.552V226.95H392.674ZM398.678 210.756C398.678 210.18 398.595 209.687 398.349 209.276C398.102 208.865 397.773 208.701 397.197 208.701C396.622 208.701 396.375 208.865 396.128 209.194C395.881 209.523 395.717 210.016 395.717 210.509V216.346C395.717 216.839 395.881 217.168 396.128 217.496C396.375 217.825 396.786 217.99 397.197 217.99C397.608 217.99 398.184 217.825 398.349 217.496C398.595 217.168 398.678 216.757 398.678 216.263V210.756Z" fill="#0068B7"/>
<path d="M404.188 202.782V199.74H407.231V202.782H404.188ZM404.188 220.867V205.823H407.231V220.867H404.188Z" fill="#0068B7"/>
<path d="M412.823 216.51C412.823 217.003 412.988 217.332 413.234 217.579C413.481 217.825 413.892 217.99 414.303 217.99C414.715 217.99 415.29 217.825 415.455 217.497C415.619 217.168 415.784 216.839 415.784 216.51H418.827C418.827 217.825 418.415 218.894 417.593 219.716C417.182 220.127 416.688 220.456 416.195 220.702C415.702 220.949 415.044 221.031 414.303 221.031C413.563 221.031 412.576 220.867 411.918 220.456C411.261 220.045 410.767 219.552 410.356 218.894C410.109 218.483 410.027 218.072 409.945 217.497C409.945 217.003 409.862 216.428 409.862 215.77V210.838C409.862 210.263 409.862 209.687 409.945 209.112C409.945 208.618 410.191 208.125 410.356 207.714C410.685 207.057 411.178 206.563 411.918 206.152C412.576 205.741 413.399 205.577 414.303 205.577C415.208 205.577 415.619 205.659 416.195 205.906C416.771 206.152 417.264 206.481 417.593 206.892C418.415 207.796 418.744 208.947 418.744 210.345H415.702C415.702 209.769 415.537 209.276 415.29 209.029C415.044 208.783 414.632 208.618 414.221 208.618C413.81 208.618 413.399 208.783 413.152 209.029C412.905 209.276 412.741 209.769 412.741 210.345V216.51H412.823Z" fill="#0068B7"/>
<path d="M420.225 220.867V199.823H423.268V212.4L426.886 205.824H429.929L426.31 211.907L430.669 220.785H427.38L424.666 214.291L423.185 216.592V220.785H420.142L420.225 220.867Z" fill="#0068B7"/>
<path d="M431.738 202.782V199.74H434.781V202.782H431.738ZM431.738 220.867V205.823H434.781V220.867H431.738Z" fill="#0068B7"/>
<path d="M437.249 220.867V205.824H440.291V207.303C440.62 206.81 440.949 206.481 441.443 206.152C441.936 205.824 442.43 205.659 443.17 205.659C443.91 205.659 443.91 205.659 444.321 205.824C444.732 205.988 445.061 206.152 445.308 206.481C445.637 206.81 445.802 207.139 446.048 207.632C446.213 208.125 446.295 208.701 446.295 209.358V220.867H443.252V210.509C443.252 209.934 443.088 209.523 442.841 209.194C442.594 208.865 442.183 208.701 441.772 208.701C441.361 208.701 440.785 208.865 440.62 209.194C440.374 209.523 440.291 210.098 440.291 210.756V220.867H437.249Z" fill="#0068B7"/>
<path d="M451.805 222.593C451.805 222.922 451.97 223.251 452.216 223.58C452.463 223.908 452.874 224.073 453.368 224.073C453.861 224.073 454.19 223.908 454.437 223.58C454.683 223.251 454.766 222.922 454.766 222.429V219.469C454.437 219.963 454.026 220.374 453.532 220.62C453.039 220.867 452.545 221.031 451.887 221.031C450.654 221.031 449.749 220.538 449.256 219.634C449.091 219.305 448.927 218.894 448.844 218.401C448.844 217.907 448.762 217.25 448.762 216.428V210.756C448.762 209.687 448.762 208.865 448.844 208.372C448.927 207.385 449.42 206.645 450.242 206.152C450.654 205.906 451.147 205.741 451.97 205.741C452.792 205.741 452.627 205.741 452.956 205.823C453.203 205.823 453.45 205.988 453.697 206.152C453.943 206.317 454.108 206.481 454.272 206.645C454.437 206.81 454.601 207.056 454.848 207.221V205.823H457.891V222.675C457.891 223.168 457.809 223.744 457.644 224.237C457.48 224.73 457.233 225.224 456.822 225.635C456.411 226.046 455.999 226.457 455.424 226.703C454.848 226.95 454.19 227.114 453.368 227.114C452.545 227.114 452.463 227.114 451.97 226.868C451.476 226.621 450.983 226.457 450.571 226.128C450.16 225.799 449.749 225.306 449.502 224.813C449.173 224.237 449.009 223.497 448.927 222.675H451.97L451.805 222.593ZM451.805 216.263C451.805 216.757 451.887 217.168 452.134 217.496C452.381 217.825 452.71 217.99 453.285 217.99C453.861 217.99 454.108 217.825 454.355 217.496C454.601 217.168 454.766 216.839 454.766 216.346V210.509C454.766 209.934 454.601 209.523 454.355 209.194C454.108 208.865 453.697 208.701 453.285 208.701C452.874 208.701 452.381 208.865 452.134 209.276C451.887 209.687 451.805 210.18 451.805 210.756V216.263Z" fill="#0068B7"/>
<path d="M474.833 205.823V220.867H471.79V219.387C471.461 219.88 471.132 220.209 470.638 220.538C470.145 220.867 469.651 221.031 468.911 221.031C468.171 221.031 468.171 221.031 467.76 220.867C467.349 220.702 467.02 220.538 466.773 220.209C466.444 219.88 466.28 219.552 466.033 219.058C465.786 218.565 465.786 217.99 465.786 217.332V205.823H468.829V216.181C468.829 216.757 468.993 217.168 469.24 217.496C469.487 217.825 469.898 217.99 470.309 217.99C470.721 217.99 471.296 217.825 471.461 217.496C471.707 217.168 471.79 216.592 471.79 215.935V205.823H474.833Z" fill="#0068B7"/>
<path d="M477.3 226.95V205.906H480.343V207.303C480.754 206.892 481.083 206.481 481.494 206.235C481.905 205.906 482.481 205.823 483.221 205.823C484.455 205.823 485.359 206.317 485.853 207.221C486.017 207.55 486.182 207.961 486.264 208.454C486.346 208.947 486.346 209.605 486.346 210.427V216.099C486.346 217.168 486.346 217.99 486.264 218.483C486.182 219.469 485.688 220.209 484.866 220.702C484.455 220.949 483.879 221.113 483.139 221.113C482.399 221.113 481.987 220.949 481.576 220.702C481.083 220.456 480.754 220.045 480.343 219.552V226.95H477.3ZM483.386 210.756C483.386 210.18 483.303 209.687 483.057 209.276C482.81 208.865 482.481 208.701 481.905 208.701C481.33 208.701 481.083 208.865 480.836 209.194C480.589 209.523 480.425 210.016 480.425 210.509V216.346C480.425 216.839 480.589 217.168 480.836 217.496C481.083 217.825 481.494 217.99 481.905 217.99C482.316 217.99 482.892 217.825 483.057 217.496C483.303 217.168 483.386 216.757 483.386 216.263V210.756Z" fill="#0068B7"/>
<path d="M494.324 205.823V201.302H497.366V205.823H499.258V208.207H497.366V216.51C497.366 216.839 497.366 217.168 497.449 217.332C497.449 217.496 497.613 217.661 497.778 217.743C497.942 217.825 498.107 217.907 498.353 217.907C498.6 217.907 498.847 217.907 499.176 217.907V220.785H497.942C497.284 220.785 496.709 220.702 496.215 220.456C495.722 220.209 495.393 219.963 495.146 219.634C494.899 219.305 494.653 218.894 494.57 218.483C494.406 218.072 494.406 217.661 494.406 217.25V208.125H492.925V205.741H494.406L494.324 205.823Z" fill="#0068B7"/>
<path d="M500.409 220.867V205.824H503.452V207.385C504.028 206.81 504.686 206.399 505.262 206.07C505.837 205.741 506.577 205.577 507.482 205.577V208.783C507.153 208.701 506.906 208.618 506.577 208.618C506.249 208.618 505.92 208.618 505.591 208.783C505.262 208.947 504.933 209.112 504.604 209.358C504.275 209.605 504.028 209.934 503.864 210.345C503.699 210.756 503.535 211.249 503.535 211.907V220.785H500.492L500.409 220.867Z" fill="#0068B7"/>
<path d="M514.144 220.867V219.305C513.732 219.88 513.321 220.291 512.91 220.538C512.499 220.867 511.923 220.949 511.183 220.949C510.443 220.949 510.443 220.949 510.114 220.785C509.785 220.702 509.374 220.456 509.045 220.209C508.716 219.963 508.469 219.552 508.222 218.976C507.976 218.401 507.893 217.743 507.893 216.921C507.893 216.099 507.893 215.359 508.14 214.702C508.305 214.044 508.551 213.551 508.88 213.057C509.209 212.646 509.703 212.318 510.361 212.153C511.018 211.989 511.759 211.824 512.663 211.824H512.992C513.074 211.824 513.239 211.824 513.321 211.824C513.403 211.824 513.568 211.824 513.65 211.824C513.732 211.824 513.897 211.824 514.061 211.824V210.263C514.061 209.769 513.979 209.358 513.732 209.029C513.486 208.701 513.157 208.536 512.581 208.536C512.005 208.536 511.841 208.701 511.512 208.947C511.183 209.194 510.936 209.605 510.854 210.098H507.893C507.893 208.783 508.387 207.632 509.291 206.81C510.196 205.988 510.196 206.07 510.69 205.906C511.265 205.659 511.841 205.577 512.581 205.577C513.321 205.577 513.815 205.659 514.39 205.906C514.966 206.07 515.459 206.399 515.871 206.81C516.282 207.221 516.611 207.714 516.858 208.29C517.104 208.865 517.187 209.605 517.187 210.345V220.785H514.144V220.867ZM514.144 214.373C513.815 214.373 513.568 214.291 513.321 214.291C512.663 214.291 512.088 214.455 511.676 214.784C511.183 215.113 511.018 215.688 511.018 216.428C511.018 217.168 511.183 217.497 511.43 217.825C511.676 218.154 512.088 218.319 512.581 218.319C513.074 218.319 513.486 218.154 513.815 217.825C514.061 217.497 514.226 217.003 514.226 216.428V214.373H514.144Z" fill="#0068B7"/>
<path d="M524.917 210.016C524.917 209.523 524.753 209.112 524.424 208.865C524.095 208.618 523.766 208.454 523.355 208.454C522.943 208.454 522.532 208.618 522.285 208.947C522.039 209.276 521.874 209.605 521.874 210.016C521.874 210.427 521.874 210.591 522.121 210.838C522.285 211.084 522.614 211.331 523.19 211.578L524.999 212.318C526.151 212.729 526.891 213.304 527.302 214.126C527.713 214.866 527.96 215.688 527.96 216.592C527.96 217.496 527.878 217.825 527.631 218.318C527.384 218.894 527.055 219.305 526.726 219.716C526.397 220.127 525.822 220.456 525.328 220.702C524.753 220.949 524.177 221.031 523.519 221.031C522.285 221.031 521.299 220.62 520.476 219.88C520.065 219.469 519.736 219.058 519.489 218.483C519.242 217.907 519.078 217.25 519.078 216.51H521.956C521.956 216.921 522.121 217.332 522.368 217.661C522.614 217.99 523.026 218.154 523.601 218.154C524.177 218.154 524.424 217.99 524.753 217.743C525.082 217.496 525.246 217.085 525.246 216.51C525.246 215.935 525.164 215.77 524.917 215.441C524.67 215.112 524.341 214.866 523.766 214.701L522.285 214.208C521.298 213.879 520.558 213.304 520.065 212.646C519.489 211.907 519.242 211.084 519.242 210.098C519.242 209.112 519.325 208.865 519.571 208.372C519.818 207.796 520.147 207.385 520.558 206.974C520.97 206.563 521.381 206.317 521.956 206.07C522.45 205.823 523.026 205.741 523.683 205.741C524.341 205.741 524.835 205.823 525.411 206.07C525.904 206.317 526.397 206.563 526.726 206.974C527.138 207.385 527.384 207.796 527.631 208.372C527.878 208.947 527.96 209.523 527.96 210.098H525.082L524.917 210.016Z" fill="#0068B7"/>
<path d="M529.852 220.867V199.823H532.895V207.303C533.224 206.81 533.553 206.481 534.046 206.152C534.539 205.824 535.033 205.659 535.773 205.659C536.513 205.659 536.513 205.659 536.924 205.824C537.336 205.988 537.665 206.152 537.911 206.481C538.24 206.81 538.405 207.139 538.651 207.632C538.816 208.125 538.898 208.701 538.898 209.358V220.867H535.855V210.509C535.855 209.934 535.691 209.523 535.444 209.194C535.197 208.865 534.786 208.701 534.375 208.701C533.964 208.701 533.388 208.865 533.224 209.194C532.977 209.523 532.895 210.098 532.895 210.756V220.867H529.852Z" fill="#0068B7"/>
<path d="M546.875 202.782V199.74H549.918V202.782H546.875ZM546.875 220.867V205.823H549.918V220.867H546.875Z" fill="#0068B7"/>
<path d="M557.813 210.016C557.813 209.523 557.649 209.112 557.32 208.865C556.991 208.618 556.662 208.454 556.251 208.454C555.84 208.454 555.428 208.618 555.182 208.947C554.935 209.276 554.771 209.605 554.771 210.016C554.771 210.427 554.771 210.591 555.017 210.838C555.182 211.084 555.511 211.331 556.086 211.578L557.896 212.318C559.047 212.729 559.787 213.304 560.198 214.126C560.61 214.866 560.856 215.688 560.856 216.592C560.856 217.496 560.774 217.825 560.527 218.318C560.281 218.894 559.952 219.305 559.623 219.716C559.294 220.127 558.718 220.456 558.225 220.702C557.649 220.949 557.073 221.031 556.415 221.031C555.182 221.031 554.195 220.62 553.372 219.88C552.961 219.469 552.632 219.058 552.386 218.483C552.139 217.907 551.974 217.25 551.974 216.51H554.853C554.853 216.921 555.017 217.332 555.264 217.661C555.511 217.99 555.922 218.154 556.498 218.154C557.073 218.154 557.32 217.99 557.649 217.743C557.978 217.496 558.142 217.085 558.142 216.51C558.142 215.935 558.06 215.77 557.813 215.441C557.567 215.112 557.238 214.866 556.662 214.701L555.182 214.208C554.195 213.879 553.455 213.304 552.961 212.646C552.386 211.907 552.139 211.084 552.139 210.098C552.139 209.112 552.221 208.865 552.468 208.372C552.715 207.796 553.043 207.385 553.455 206.974C553.866 206.563 554.277 206.317 554.853 206.07C555.346 205.823 555.922 205.741 556.58 205.741C557.238 205.741 557.731 205.823 558.307 206.07C558.8 206.317 559.294 206.563 559.623 206.974C560.034 207.385 560.281 207.796 560.527 208.372C560.774 208.947 560.856 209.523 560.856 210.098H557.978L557.813 210.016Z" fill="#0068B7"/>
<path d="M574.015 220.867V219.305C573.604 219.88 573.192 220.291 572.781 220.538C572.37 220.867 571.794 220.949 571.054 220.949C570.314 220.949 570.314 220.949 569.985 220.785C569.656 220.702 569.245 220.456 568.916 220.209C568.587 219.963 568.34 219.552 568.094 218.976C567.847 218.401 567.765 217.743 567.765 216.921C567.765 216.099 567.765 215.359 568.011 214.702C568.176 214.044 568.422 213.551 568.751 213.057C569.08 212.646 569.574 212.318 570.232 212.153C570.89 211.989 571.63 211.824 572.535 211.824H572.863C572.946 211.824 573.11 211.824 573.192 211.824C573.275 211.824 573.439 211.824 573.521 211.824C573.604 211.824 573.768 211.824 573.933 211.824V210.263C573.933 209.769 573.85 209.358 573.604 209.029C573.357 208.701 573.028 208.536 572.452 208.536C571.877 208.536 571.712 208.701 571.383 208.947C571.054 209.194 570.807 209.605 570.725 210.098H567.765C567.765 208.783 568.258 207.632 569.163 206.81C570.067 205.988 570.067 206.07 570.561 205.906C571.136 205.659 571.712 205.577 572.452 205.577C573.192 205.577 573.686 205.659 574.262 205.906C574.837 206.07 575.331 206.399 575.742 206.81C576.153 207.221 576.482 207.714 576.729 208.29C576.976 208.865 577.058 209.605 577.058 210.345V220.785H574.015V220.867ZM574.015 214.373C573.686 214.373 573.439 214.291 573.192 214.291C572.535 214.291 571.959 214.455 571.548 214.784C571.054 215.113 570.89 215.688 570.89 216.428C570.89 217.168 571.054 217.497 571.301 217.825C571.548 218.154 571.959 218.319 572.452 218.319C572.946 218.319 573.357 218.154 573.686 217.825C573.933 217.497 574.097 217.003 574.097 216.428V214.373H574.015Z" fill="#0068B7"/>
<path d="M587.914 216.51C587.914 217.003 588.078 217.332 588.325 217.579C588.571 217.825 588.983 217.99 589.394 217.99C589.805 217.99 590.381 217.825 590.545 217.497C590.71 217.168 590.874 216.839 590.874 216.51H593.917C593.917 217.825 593.506 218.894 592.683 219.716C592.272 220.127 591.779 220.456 591.285 220.702C590.792 220.949 590.134 221.031 589.394 221.031C588.654 221.031 587.667 220.867 587.009 220.456C586.351 220.045 585.857 219.552 585.446 218.894C585.2 218.483 585.117 218.072 585.035 217.497C585.035 217.003 584.953 216.428 584.953 215.77V210.838C584.953 210.263 584.953 209.687 585.035 209.112C585.035 208.618 585.282 208.125 585.446 207.714C585.775 207.057 586.269 206.563 587.009 206.152C587.667 205.741 588.489 205.577 589.394 205.577C590.298 205.577 590.71 205.659 591.285 205.906C591.861 206.152 592.355 206.481 592.683 206.892C593.506 207.796 593.835 208.947 593.835 210.345H590.792C590.792 209.769 590.627 209.276 590.381 209.029C590.134 208.783 589.723 208.618 589.312 208.618C588.9 208.618 588.489 208.783 588.242 209.029C587.996 209.276 587.831 209.769 587.831 210.345V216.51H587.914Z" fill="#0068B7"/>
<path d="M595.397 210.92C595.397 210.345 595.397 209.769 595.48 209.194C595.48 208.701 595.726 208.207 595.891 207.796C596.22 207.139 596.713 206.646 597.453 206.235C598.111 205.824 598.934 205.659 599.838 205.659C600.743 205.659 601.566 205.824 602.223 206.235C602.881 206.646 603.375 207.139 603.786 207.796C604.033 208.207 604.115 208.618 604.197 209.194C604.197 209.687 604.279 210.263 604.279 210.92V215.852C604.279 216.428 604.279 217.003 604.197 217.579C604.197 218.072 603.951 218.565 603.786 218.976C603.457 219.634 602.881 220.127 602.223 220.538C601.566 220.949 600.743 221.114 599.838 221.114C598.934 221.114 598.111 220.949 597.453 220.538C596.796 220.127 596.302 219.634 595.891 218.976C595.644 218.565 595.562 218.154 595.48 217.579C595.48 217.086 595.397 216.51 595.397 215.852V210.92ZM598.44 216.263C598.44 216.839 598.605 217.25 598.852 217.579C599.098 217.825 599.509 217.99 599.921 217.99C600.332 217.99 600.743 217.825 600.99 217.579C601.237 217.332 601.401 216.839 601.401 216.263V210.345C601.401 209.769 601.237 209.358 600.99 209.029C600.743 208.783 600.332 208.618 599.921 208.618C599.509 208.618 599.098 208.783 598.852 209.029C598.605 209.276 598.44 209.769 598.44 210.345V216.263Z" fill="#0068B7"/>
<path d="M606.664 220.867V205.824H609.707V207.303C610.036 206.81 610.365 206.481 610.859 206.152C611.352 205.824 611.846 205.659 612.586 205.659C613.326 205.659 613.819 205.824 614.231 206.152C614.642 206.481 615.053 206.81 615.3 207.221C615.711 206.81 616.122 206.481 616.533 206.152C617.027 205.824 617.602 205.741 618.425 205.741C619.247 205.741 619.165 205.741 619.576 205.906C619.987 206.07 620.316 206.235 620.645 206.563C620.974 206.892 621.221 207.221 621.386 207.714C621.55 208.207 621.715 208.783 621.715 209.441V220.949H618.672V210.591C618.672 210.016 618.507 209.605 618.26 209.276C618.014 208.947 617.602 208.783 617.191 208.783C616.78 208.783 616.204 208.947 616.04 209.276C615.793 209.605 615.711 210.18 615.711 210.838V220.949H612.668V210.591C612.668 210.016 612.504 209.605 612.257 209.276C612.01 208.947 611.599 208.783 611.188 208.783C610.777 208.783 610.201 208.947 610.036 209.276C609.79 209.605 609.707 210.18 609.707 210.838V220.949H606.664V220.867Z" fill="#0068B7"/>
<path d="M624.182 226.95V205.906H627.225V207.303C627.636 206.892 627.965 206.481 628.376 206.235C628.787 205.906 629.363 205.823 630.103 205.823C631.337 205.823 632.241 206.317 632.735 207.221C632.899 207.55 633.064 207.961 633.146 208.454C633.228 208.947 633.228 209.605 633.228 210.427V216.099C633.228 217.168 633.228 217.99 633.146 218.483C633.064 219.469 632.57 220.209 631.748 220.702C631.337 220.949 630.761 221.113 630.021 221.113C629.281 221.113 628.869 220.949 628.458 220.702C627.965 220.456 627.636 220.045 627.225 219.552V226.95H624.182ZM630.185 210.756C630.185 210.18 630.103 209.687 629.856 209.276C629.61 208.865 629.281 208.701 628.705 208.701C628.129 208.701 627.882 208.865 627.636 209.194C627.389 209.523 627.225 210.016 627.225 210.509V216.346C627.225 216.839 627.389 217.168 627.636 217.496C627.882 217.825 628.294 217.99 628.705 217.99C629.116 217.99 629.692 217.825 629.856 217.496C630.103 217.168 630.185 216.757 630.185 216.263V210.756Z" fill="#0068B7"/>
<path d="M644.413 214.455H638.409V216.51C638.409 217.003 638.574 217.332 638.821 217.579C639.067 217.825 639.478 217.99 639.89 217.99C640.301 217.99 640.877 217.825 641.041 217.497C641.206 217.168 641.37 216.839 641.37 216.51H644.413C644.413 217.825 644.002 218.894 643.179 219.716C642.768 220.127 642.275 220.456 641.781 220.702C641.288 220.949 640.63 221.031 639.89 221.031C639.15 221.031 638.163 220.867 637.505 220.456C636.847 220.045 636.353 219.552 635.942 218.894C635.695 218.483 635.613 218.072 635.531 217.497C635.531 217.003 635.449 216.428 635.449 215.77V210.838C635.449 210.263 635.449 209.687 635.531 209.112C635.531 208.618 635.778 208.125 635.942 207.714C636.271 207.057 636.765 206.563 637.505 206.152C638.163 205.741 638.985 205.577 639.89 205.577C640.794 205.577 641.206 205.659 641.781 205.906C642.357 206.152 642.85 206.481 643.179 206.892C644.002 207.796 644.331 208.865 644.331 210.263V214.373L644.413 214.455ZM638.492 212.153H641.452V210.427C641.452 209.852 641.288 209.44 641.041 209.112C640.794 208.865 640.383 208.701 639.972 208.701C639.561 208.701 639.15 208.865 638.903 209.112C638.656 209.358 638.492 209.852 638.492 210.427V212.153Z" fill="#0068B7"/>
<path d="M646.633 205.823V201.302H649.676V205.823H651.568V208.207H649.676V216.51C649.676 216.839 649.676 217.168 649.759 217.332C649.759 217.496 649.923 217.661 650.088 217.743C650.252 217.825 650.417 217.907 650.663 217.907C650.91 217.907 651.157 217.907 651.486 217.907V220.785H650.252C649.594 220.785 649.018 220.702 648.525 220.456C648.032 220.209 647.703 219.963 647.456 219.634C647.209 219.305 646.962 218.894 646.88 218.483C646.716 218.072 646.716 217.661 646.716 217.25V208.125H645.235V205.741H646.716L646.633 205.823Z" fill="#0068B7"/>
<path d="M652.719 202.782V199.74H655.762V202.782H652.719ZM652.719 220.867V205.823H655.762V220.867H652.719Z" fill="#0068B7"/>
<path d="M658.23 205.823V201.302H661.272V205.823H663.164V208.207H661.272V216.51C661.272 216.839 661.272 217.168 661.355 217.332C661.355 217.496 661.519 217.661 661.684 217.743C661.848 217.825 662.013 217.907 662.259 217.907C662.506 217.907 662.753 217.907 663.082 217.907V220.785H661.848C661.19 220.785 660.614 220.702 660.121 220.456C659.628 220.209 659.299 219.963 659.052 219.634C658.805 219.305 658.558 218.894 658.476 218.483C658.312 218.072 658.312 217.661 658.312 217.25V208.125H656.831V205.741H658.312L658.23 205.823Z" fill="#0068B7"/>
<path d="M664.233 202.782V199.74H667.276V202.782H664.233ZM664.233 220.867V205.823H667.276V220.867H664.233Z" fill="#0068B7"/>
<path d="M669.496 210.92C669.496 210.345 669.496 209.769 669.579 209.194C669.579 208.701 669.825 208.207 669.99 207.796C670.319 207.139 670.812 206.646 671.552 206.235C672.21 205.824 673.033 205.659 673.937 205.659C674.842 205.659 675.664 205.824 676.322 206.235C676.98 206.646 677.474 207.139 677.885 207.796C678.132 208.207 678.214 208.618 678.296 209.194C678.296 209.687 678.378 210.263 678.378 210.92V215.852C678.378 216.428 678.378 217.003 678.296 217.579C678.296 218.072 678.049 218.565 677.885 218.976C677.556 219.634 676.98 220.127 676.322 220.538C675.664 220.949 674.842 221.114 673.937 221.114C673.033 221.114 672.21 220.949 671.552 220.538C670.894 220.127 670.401 219.634 669.99 218.976C669.743 218.565 669.661 218.154 669.579 217.579C669.579 217.086 669.496 216.51 669.496 215.852V210.92ZM672.539 216.263C672.539 216.839 672.704 217.25 672.95 217.579C673.197 217.825 673.608 217.99 674.02 217.99C674.431 217.99 674.842 217.825 675.089 217.579C675.335 217.332 675.5 216.839 675.5 216.263V210.345C675.5 209.769 675.335 209.358 675.089 209.029C674.842 208.783 674.431 208.618 674.02 208.618C673.608 208.618 673.197 208.783 672.95 209.029C672.704 209.276 672.539 209.769 672.539 210.345V216.263Z" fill="#0068B7"/>
<path d="M680.681 220.867V205.824H683.724V207.303C684.053 206.81 684.382 206.481 684.875 206.152C685.369 205.824 685.862 205.659 686.602 205.659C687.343 205.659 687.343 205.659 687.754 205.824C688.165 205.988 688.494 206.152 688.741 206.481C689.07 206.81 689.234 207.139 689.481 207.632C689.645 208.125 689.728 208.701 689.728 209.358V220.867H686.685V210.509C686.685 209.934 686.52 209.523 686.274 209.194C686.027 208.865 685.616 208.701 685.204 208.701C684.793 208.701 684.217 208.865 684.053 209.194C683.806 209.523 683.724 210.098 683.724 210.756V220.867H680.681Z" fill="#0068B7"/>
<path d="M692.195 220.867V217.825H695.238V220.867H692.195Z" fill="#0068B7"/>
<path d="M719.17 119.92V131.593C718.101 130.442 717.278 129.62 714.729 129.62H697.869L697.129 134.717C699.021 133.977 701.735 133.566 703.955 133.566C717.278 133.566 725.42 141.622 725.42 150.171C725.42 158.72 714.153 167.845 698.281 167.845C682.408 167.845 682.655 165.626 675.747 160.858C675.171 160.447 673.855 160.365 672.621 160.365L686.273 151.075C688.576 155.104 692.441 157.159 697.952 157.159C703.462 157.159 708.643 153.624 708.643 150.418C708.643 145.814 704.531 142.362 695.649 142.362C686.767 142.362 685.698 144.253 681.997 146.636L685.944 120.002H719.17V119.92Z" fill="white"/>
</g>
<defs>
<filter id="filter0_d_36_120" x="0.909088" y="0.395325" width="728.511" height="332.833" filterUnits="userSpaceOnUse" color-interpolation-filters="sRGB">
<feFlood flood-opacity="0" result="BackgroundImageFix"/>
<feColorMatrix in="SourceAlpha" type="matrix" values="0 0 0 0 0 0 0 0 0 0 0 0 0 0 0 0 0 0 127 0" result="hardAlpha"/>
<feOffset dy="4"/>
<feGaussianBlur stdDeviation="2"/>
<feComposite in2="hardAlpha" operator="out"/>
<feColorMatrix type="matrix" values="0 0 0 0 0 0 0 0 0 0 0 0 0 0 0 0 0 0 0.25 0"/>
<feBlend mode="normal" in2="BackgroundImageFix" result="effect1_dropShadow_36_120"/>
<feBlend mode="normal" in="SourceGraphic" in2="effect1_dropShadow_36_120" result="shape"/>
</filter>
</defs>
</svg>
