<?xml version="1.0" encoding="UTF-8"?>
<svg xmlns="http://www.w3.org/2000/svg" version="1.1" viewBox="0 0 254.4 203.1">
  <defs>
    <style>
      .cls-1 {
        fill: #0068b7;
      }

      .cls-2 {
        fill: #e8380d;
      }

      .cls-3 {
        fill: #00a0e9;
      }
    </style>
  </defs>
  <!-- Generator: Adobe Illustrator 28.7.1, SVG Export Plug-In . SVG Version: 1.2.0 Build 142)  -->
  <g>
    <g id="_レイヤー_1" data-name="レイヤー_1">
      <g id="_グループ_1235" data-name="グループ_1235">
        <g id="_グループ_1065" data-name="グループ_1065">
          <g id="_グループ_1063" data-name="グループ_1063">
            <path id="_パス_707" data-name="パス_707" class="cls-1" d="M33,154.8c-1.5-1.1-3.4-1.8-5.3-1.9-2,0-2.4.7-2.4,1.3,0,2.9,11.6,3.9,11.6,11.7s-4.8,8.4-12.5,8.4-3.7-.4-5.2-.4c-.8,0-1.5.2-2.2.4v-8.7c1.8,1.9,4.2,3,6.8,3.1,2.7,0,4.5-1.2,4.5-3,0-4.2-11.6-4.9-11.6-11.2s3.6-7.3,9.4-7.3,3.4.4,4.9.4c.6,0,1.3,0,1.8-.4h.1v7.5Z"/>
            <path id="_パス_708" data-name="パス_708" class="cls-1" d="M41.8,173.8c.9-.4,1.2-1.3,1.2-2.7v-23.8c.7.5,1.6.7,2.4.7,1.6,0,4.7-.7,7.2-.7,8.9,0,13.6,4.8,13.6,9.4s-5.2,9.4-13.1,9.4c-.6,0-1.3,0-1.9-.1v5.1c0,1.4.3,2.3,1.2,2.7h-10.7ZM51.3,159.9c.5.2,1.1.2,1.6.2,2.8,0,4.8-1.2,4.8-3.4s-2-3.4-4.8-3.4c-.5,0-1.1,0-1.6.2v6.3Z"/>
            <path id="_パス_709" data-name="パス_709" class="cls-1" d="M108.4,160.8c0,7.8-9,13.5-19.2,13.5s-19.2-5.7-19.2-13.5,9-13.5,19.2-13.5,19.2,5.7,19.2,13.5ZM78.6,160.8c0,3.8,3.9,7.5,10.6,7.5s10.6-3.7,10.6-7.5-3.9-7.5-10.6-7.5-10.6,3.7-10.6,7.5Z"/>
            <path id="_パス_710" data-name="パス_710" class="cls-1" d="M143.8,168.2c0,1.3.2,1.7,1.1,2.3-3.6,2.5-8.3,3.9-14.2,3.9-10.4,0-19-5.8-19-13.5s8.5-13.5,19-13.5,4.9.7,6,.7c.8,0,1.5-.3,2.1-.7v8.4c-2.4-1.7-5.3-2.5-8.2-2.4-5.9,0-10.4,2.8-10.4,7.5s4.5,7.5,10.4,7.5c1.6,0,3.3-.2,4.8-.7v-3.8h-6.9c-.9,0-1.8.3-2.5.9v-7.9c.7.6,1.6,1,2.5.9h15.1v10.3Z"/>
            <path id="_パス_711" data-name="パス_711" class="cls-1" d="M186,160.8c0,7.8-9,13.5-19.2,13.5s-19.2-5.7-19.2-13.5,9-13.5,19.2-13.5,19.2,5.7,19.2,13.5ZM156.2,160.8c0,3.8,3.9,7.5,10.6,7.5s10.6-3.7,10.6-7.5-3.9-7.5-10.6-7.5-10.6,3.7-10.6,7.5h0Z"/>
            <path id="_パス_712" data-name="パス_712" class="cls-1" d="M207,160.2h.1l6-12.3h8.2c-.4.4-.6.9-.6,1.5,0,.7.1,1.4.2,2l4,19.1c.3,1.2.9,2.4,1.7,3.3h-10.8c.5-.3.9-.8.9-1.4,0-.5,0-1.1-.1-1.6l-1.8-12.4h-.1l-7.8,16h-.4l-8-16h-.1l-1.5,12.6c0,.5-.1.9-.1,1.4,0,.6.4,1.1.9,1.4h-10.7c.9-.9,1.5-2,1.7-3.3l4.1-19.1c.1-.7.2-1.4.2-2,0-.6-.3-1.1-.6-1.5h8.5l5.9,12.3Z"/>
            <path id="_パス_713" data-name="パス_713" class="cls-1" d="M231.1,150.6c0-1.4-.3-2.3-1.2-2.7h10.7c-.9.4-1.2,1.3-1.2,2.7v20.5c0,1.4.3,2.3,1.2,2.7h-10.7c.9-.4,1.2-1.3,1.2-2.7v-20.5Z"/>
          </g>
          <g id="_グループ_1064" data-name="グループ_1064">
            <path id="_パス_714" data-name="パス_714" class="cls-1" d="M23.5,201.6c-.1.2-.2.4-.3.7,0,.2.1.4.3.5h-4.9l-2.9-6.3h0l-2,5c-.1.2-.2.5-.3.7,0,.2.1.4.3.5h-4.8l-7.6-15c-.3-.6-.7-1.1-1.2-1.6h7.2c-.3.2-.6.4-.6.7,0,.3.1.6.3.9l4.1,8.9h0l2-4.9-2.3-4.2c-.2-.5-.6-1-1-1.4h7.1c-.3.2-.6.4-.6.7,0,.3.2.6.4.9l3.9,9h.1l4.3-9c.2-.3.3-.6.4-.9,0-.3-.2-.5-.5-.7h7.2c-.5.3-.9.7-1.1,1.2l-7.2,14.2Z"/>
            <path id="_パス_715" data-name="パス_715" class="cls-1" d="M55.3,194.4c0,5-5.8,8.7-12.3,8.7s-12.3-3.7-12.3-8.7,5.8-8.7,12.3-8.7,12.3,3.7,12.3,8.7ZM36.2,194.4c0,2.4,2.5,4.8,6.8,4.8s6.8-2.4,6.8-4.8-2.5-4.8-6.8-4.8-6.8,2.4-6.8,4.8h0Z"/>
            <path id="_パス_716" data-name="パス_716" class="cls-1" d="M57.6,185.7c.5.3,1,.5,1.6.4,1,0,3-.4,4.6-.4,5.1,0,7.9,2.4,7.9,5.4s-.6,3.2-2.7,3.4h0c3.7.6,5.5,4,6.1,6.5.1.7.5,1.3,1.1,1.6h-7.3c.3-.3.5-.8.4-1.3,0-2.9-2.9-4.6-6.4-5.3v4.9c0,.9.2,1.5.8,1.7h-6.9c.6-.3.8-.8.8-1.7v-15.2ZM62.9,192.9c.3,0,.5,0,.8,0,1.4,0,2.5-.8,2.5-1.8s-1.1-1.8-2.5-1.8-.5,0-.8,0v3.5Z"/>
            <path id="_パス_717" data-name="パス_717" class="cls-1" d="M77.1,202.7c.6-.3.8-.8.8-1.7v-13.2c0-.9-.2-1.5-.8-1.7h6.9c-.6.3-.8.8-.8,1.7v11.3h4.5c.9,0,1.7-.3,2.4-.8v4.4h-13Z"/>
            <path id="_パス_718" data-name="パス_718" class="cls-1" d="M92.8,185.7c.4.3.9.5,1.4.5,1.1,0,3.1-.5,5.1-.5,5.7,0,11.7,3.3,11.7,8.6s-4.4,8.4-12.4,8.4h-6.6c.6-.3.8-.8.8-1.7v-15.3ZM98,198.9c4.5,0,7.4-1.5,7.4-4.6s-3.6-4.7-7.4-4.7v9.3Z"/>
            <path id="_パス_719" data-name="パス_719" class="cls-1" d="M135,203.1c-.3-.2-.6-.3-1-.3-.6,0-2.5.3-4.3.3-7.1,0-12.2-3.7-12.2-8.7s5-8.7,12.2-8.7,3.2.5,3.9.5c.5,0,1-.2,1.4-.5v5.4c-1.5-1.1-3.4-1.6-5.2-1.6-3.8,0-6.7,1.8-6.7,4.8s2.9,4.8,6.7,4.8c1.8,0,3.7-.4,5.2-1.4v5.2Z"/>
            <path id="_パス_720" data-name="パス_720" class="cls-1" d="M155.4,186.1c-.6.3-.8.8-.8,1.7v9.7c0,3.7-3.6,5.6-7.9,5.6s-7.9-1.8-7.9-5.6v-9.7c0-.9-.2-1.5-.8-1.7h6.9c-.6.3-.8.8-.8,1.7v9.4c0,1.3,1.2,2.1,2.7,2.1s2.7-.8,2.7-2.1v-9.4c0-.9-.2-1.5-.8-1.7h6.9Z"/>
            <path id="_パス_721" data-name="パス_721" class="cls-1" d="M157.6,202.7c.6-.3.8-.8.8-1.7v-15.3c.5.3,1,.5,1.6.4,1,0,3-.4,4.6-.4,5.7,0,8.7,3.1,8.7,6s-3.3,6-8.4,6c-.4,0-.8,0-1.2,0v3.3c0,.9.2,1.5.8,1.7h-6.9ZM163.7,193.8c.3,0,.7.1,1,.1,1.8,0,3.1-.7,3.1-2.2s-1.3-2.2-3.1-2.2c-.3,0-.7,0-1,.1v4.1Z"/>
            <path id="_パス_722" data-name="パス_722" class="cls-1" d="M177.6,202.7l8.7-7.3c1.8-1.5,3.4-2.5,3.4-4s-1.2-2-2.8-2-2.8.8-2.8,2c0,.4.1.8.3,1.2h-6.4c.3-.7.6-1.4.8-2.1.5-1.6,2-4.7,8.3-4.7s8.2,2.6,8.2,5.9-2.6,4.4-5.3,6.4l-1.6,1.2h5.3c.6,0,1.1-.2,1.5-.7v4.1h-17.6Z"/>
            <path id="_パス_723" data-name="パス_723" class="cls-1" d="M198.5,198.6c-.7-2.8-.7-5.6,0-8.4.8-2.4,3.8-4.5,8.2-4.5s7.4,2.1,8.2,4.5c.7,2.8.7,5.6,0,8.4-.8,2.4-3.8,4.5-8.2,4.5s-7.4-2.1-8.2-4.5ZM203.2,196.3c0,1.9,1.4,3,3.6,3s3.6-1.2,3.6-3v-3.7c0-1.9-1.4-3-3.6-3s-3.6,1.2-3.6,3v3.7Z"/>
            <path id="_パス_724" data-name="パス_724" class="cls-1" d="M216.7,202.7l8.7-7.3c1.8-1.5,3.4-2.5,3.4-4s-1.2-2-2.8-2-2.8.8-2.8,2c0,.4.1.8.3,1.2h-6.4c.3-.7.6-1.4.8-2.1.5-1.6,2-4.7,8.3-4.7s8.2,2.6,8.2,5.9-2.6,4.4-5.3,6.4l-1.6,1.2h5.3c.6,0,1.1-.2,1.5-.7v4.1h-17.6Z"/>
            <path class="cls-1" d="M251,185.8v4.1c-.4-.4-.7-.7-1.5-.7h-5.7l-.3,1.8c.7-.3,1.6-.4,2.3-.4,4.5,0,7.3,2.9,7.3,5.9s-3.8,6.3-9.2,6.3-5.3-.8-7.7-2.5c-.2-.1-.7-.2-1-.2l4.6-3.3c.8,1.4,2.1,2.2,4,2.2s3.6-1.3,3.6-2.4c0-1.6-1.4-2.9-4.4-2.9s-3.4.7-4.6,1.5l1.3-9.5h11.3Z"/>
          </g>
        </g>
        <g id="_グループ_1066" data-name="グループ_1066">
          <path id="_パス_726" data-name="パス_726" class="cls-3" d="M121,31.7c1.7-4.1-.1-8.8-4.2-10.5-4.1-1.7-8.8.1-10.5,4.2s.1,8.8,4.2,10.5c0,0,0,0,0,0,4.1,1.7,8.8-.1,10.5-4.2Z"/>
          <path id="_パス_727" data-name="パス_727" class="cls-3" d="M142.7,32.5c-.4-.4-.9-.7-1.4-.9-2.7-1.2-5.9,0-7.1,2.8s0,5.9,2.8,7.1c1.5.6,3.2.6,4.6-.1.5.8,1,1.6,1.6,2.4,3.7,5,8.2,8.1,10,6.7s.2-6.5-3.5-11.5c-1.8-2.6-4.2-4.8-6.9-6.5Z"/>
          <path id="_パス_728" data-name="パス_728" class="cls-3" d="M137.9,63c-1.9-1.1-4.7-.6-10,2.6-7.5,4.5-17,12.8-15.1,15.9s14.5,0,21.9-4.6c0,0,.1,0,.1,0,1.1,2.1,2.6,4.7,4.4,7.8,4.1,6.9,9.1,14.4,13.9,21.1-4,2.3-8.2,4.1-12.6,5.3,2.7-1.4,5.3-3,7.6-5l-.9-1.1c-4.3,3.7-9.4,6.2-14.9,7.4,2.7-1.9,5-4.3,6.7-7.2l-1.2-.8c-3.2,5.1-7.1,8.1-10.9,8.5v-10.6h-1.4v10.6h-.3c-6.3-.6-12.3-7.6-16.5-19.5l-1.3.5c.4,1,.7,2,1.1,2.9h-11c-6.3-8.8-10.2-19.2-11.3-30l-1.4.2c.4,3.6,1.1,7.1,2,10.6h-11.3c-2.1-5.8-3.3-11.9-3.3-18.1h6.4v-1.4h-6.4c0-1.1,0-2.1.1-3.2l-4.5-4.3c-4.7,32.2,17.6,62,49.7,66.7,13.3,1.9,27-.8,38.5-7.6,6.8,9.2,12.5,15.9,13.8,15.2,2.5-1.5-8.9-28.5-19.9-46.8-6.6-11-9.8-14.5-12.1-15.1ZM109.1,98.4c2.8,6.6,6.3,11.4,10.2,13.9-7.8-1.8-15-6.8-20.7-13.9h10.5ZM87.1,79.2c1.8,6.3,4.6,12.4,8.4,17.8h-8c-5-5.1-8.9-11.2-11.6-17.8h11.2ZM89,98.4h7.5c3.9,5.3,9,9.7,14.8,12.7-8.4-2.3-16.1-6.7-22.4-12.7h0Z"/>
          <path id="_パス_729" data-name="パス_729" class="cls-3" d="M106.6,86c-.8,1.9-1.2,3.6,8.1,7.6s27.1,9.8,27.9,7.9-15.6-10.9-24.9-14.9-10.3-2.5-11.1-.6Z"/>
          <path id="_パス_730" data-name="パス_730" class="cls-3" d="M200.9,24.1h-.4c-.6,13.3-2.4,15.1-15.7,15.7v.4c13.2.6,15,2.4,15.6,15.7h.4c.6-13.3,2.4-15.1,15.7-15.7v-.4c-13.2-.6-15-2.4-15.6-15.7Z"/>
          <path id="_パス_731" data-name="パス_731" class="cls-3" d="M87.2,57.9l-21.9-22.8c-.1-.1-.3-.3-.5-.5-1-.9-1.8-1.9-2.3-3.1-.7-1.4-2-2.4-3.5-2.7-.6-.2-1-.3-1.1-.5-.2-.3-.3-.6-.4-1-.4-1.7-1.7-3.1-3.4-3.6-.6-.1-1.4-.7-2.1-4.3l-3.9.8c.6,3,1.8,6.5,5.1,7.3.1,0,.2,0,.5,1,.2.6.5,1.2.8,1.8.8,1.1,2,1.9,3.3,2.2.8.3,1,.3,1.1.5.8,1.6,1.9,3.1,3.2,4.3l22.3,23.2,2.9-2.8Z"/>
          <path id="_パス_732" data-name="パス_732" class="cls-3" d="M83.9,6.9c-.5,1.7,0,3.5,1.4,4.7.2.3.5.5.6.8.1.2,0,.6-.1,1.2-.5,1.5-.3,3.1.5,4.4.7,1.1,1.2,2.3,1.4,3.6,0,.2.1.4.2.6l3.7,13.7c-1.7-.1-3.2,1.1-3.3,2.8-.1,1.7,1.1,3.2,2.8,3.3.7,0,1.4-.1,2-.5l3.1,11.2,3.2-.9c.5.6,1,1.1,1.5,1.6l-4.7,1.3,4.1,15.6-10.8-11.3-3.9,3.5,15.9,16.1,5.6-3.2-5.7-21.6c1.2,1.2,2.7,2,4.4,2.5,3.9,1.7,16.1-1.6,19.3-2.8,3.6-1.5,5.4-5.6,3.9-9.2s-5.6-5.4-9.2-3.9c-2.4,1-9.1,5.8-12.8,9.9-.9-2-2-3.9-3.3-5.7-2.5-3.4-5.4-5.9-7.5-6.7l-4.6-16.7v-.5c-.5-1.8-1.2-3.5-2.2-5-.1-.1,0-.4.1-1.2.4-1.3.4-2.7-.2-4-.3-.6-.7-1.1-1.1-1.6-.7-.8-.6-.8-.6-1,1-3.1-1.2-5.7-3.8-8.1l-2.7,2.9c2.7,2.5,2.8,3.5,2.7,4Z"/>
          <path id="_パス_733" data-name="パス_733" class="cls-2" d="M153.9,54.7c-1.8.8,1.1,1.6,4.2,2.3-2.5,2.9-3.7,7.1-3.9,11.5,13.1-.6,15-2.4,15.6-15.4-1.8-.3-3.6-.2-5.4.2-1.1.2-2.2.7-3.2,1.2-.9-1.5-1.5-3.2-1.6-5-.2-1.6-1.4-.2-1.7,1.1s.1,1.3-1.5.9-2.9.4-1.5,1.6,1.2.8-1,1.8Z"/>
          <path id="_パス_734" data-name="パス_734" class="cls-3" d="M184.9,60.9C185.8,28.4,160.3,1.3,127.8.3c-12.3-.4-24.5,3.2-34.7,10.1l1,5.3c5-3.7,10.7-6.5,16.6-8.2-6.1,3.3-11.4,8.1-15.3,13.9l1.2.8c6.3-9.1,14.5-14.8,23.4-16.6h.3c-3.7,2.1-7.1,6.1-9.9,11.9l1.3.6c3.9-7.9,8.8-12.4,13.8-12.8v11.2h1.4V5.3c7.4.6,14.5,10.3,18.5,25.7l1.4-.4c-.8-3.2-1.9-6.4-3.1-9.4h11.2c3.9,5.4,6.8,11.4,8.6,17.8h-7.9v1.4h8.3c.9,3.2,1.5,6.4,1.9,9.7l1.4-.2c-.4-3.2-1-6.4-1.9-9.5h11.3c1.9,5.3,3,10.9,3.3,16.5l5,3.9ZM163,19.9h-7.4c-3.7-5.1-8.6-9.4-14.1-12.4,8,2.4,15.4,6.6,21.5,12.4ZM143.1,19.9c-3-6.9-6.7-11.8-10.8-14.2,8.2,1.7,15.7,6.8,21.5,14.2h-10.7ZM165,39.1c-1.8-6.3-4.6-12.4-8.4-17.8h7.8c5,5.1,9,11.2,11.6,17.8h-11.1Z"/>
          <path id="_パス_735" data-name="パス_735" class="cls-2" d="M179.9,56.8c-3-1.9-6.3-3.1-9.7-3.7.6,13,2.5,14.7,15.7,15.3v.4c-13.4.6-15.2,2.4-15.8,15.7h-.4c-.6-13.3-2.4-15.1-15.6-15.7-.1,2.9.1,5.9.8,8.8,2.2,9.8,11.9,15.9,21.7,13.7,9.8-2.2,15.9-11.9,13.7-21.7h0c-.9-3.5-2.8-6.6-5.5-9-1.6-1.4-3.2-2.7-5-3.9Z"/>
        </g>
      </g>
    </g>
  </g>
</svg>