<svg width="324" height="240" viewBox="0 0 324 240" fill="none" xmlns="http://www.w3.org/2000/svg">
<path d="M140.202 60.7966C143.494 52.9736 139.955 43.9978 132.137 40.6215C124.318 37.3277 115.347 40.8686 111.973 48.6916C108.681 56.5145 112.22 65.4904 120.038 68.8666C127.857 72.1605 136.828 68.6196 140.202 60.7966Z" fill="white"/>
<path d="M181.682 62.2789C180.859 61.5378 179.954 60.9613 178.966 60.4673C173.699 58.1615 167.608 60.632 165.386 65.8198C163.082 71.09 165.551 77.1837 170.736 79.4071C173.534 80.6423 176.826 80.56 179.542 79.1601C180.447 80.6423 181.435 82.2069 182.587 83.6892C189.747 93.3238 198.307 99.1704 201.681 96.6177C205.055 94.0649 202.01 84.1833 194.932 74.5486C190.57 68.6196 185.632 64.1729 181.764 62.1966L181.682 62.2789Z" fill="#F8993A"/>
<path d="M172.547 120.745C168.925 118.687 163.493 119.675 153.37 125.851C139.05 134.58 120.862 150.308 124.565 156.237C128.269 162.166 152.218 156.237 166.539 147.508C166.539 147.508 166.703 147.426 166.785 147.343C168.925 151.461 171.724 156.319 175.263 162.166C183.081 175.259 192.71 189.835 201.763 202.681C194.192 207.128 186.126 210.504 177.649 212.892C182.834 210.339 187.772 207.128 192.217 203.34L190.488 201.281C182.34 208.28 172.547 213.139 162.012 215.527C166.621 212.48 171.065 207.869 174.851 201.775L172.547 200.293C166.456 210.01 158.885 215.774 151.642 216.68V196.505H148.926V216.762H148.268C136.17 215.692 124.73 202.187 116.746 179.377L114.195 180.282C114.854 182.259 115.594 184.07 116.335 185.882H95.2659C83.9907 170.648 76.1721 150.802 73.5385 128.486L70.8226 128.815C71.6456 135.65 72.8801 142.403 74.6907 149.073H52.9633C48.8482 137.956 46.7084 126.263 46.5438 114.487H58.7243V111.769H46.5438C46.5438 109.711 46.5438 107.652 46.7907 105.593L38.2314 97.2764C30.1659 152.614 64.4031 206.88 119.709 222.115C149.255 230.267 180.859 226.067 207.113 210.339C220.034 227.961 231.063 240.808 233.449 239.408C238.223 236.525 216.331 184.729 195.426 149.732C182.834 128.733 176.579 121.981 172.3 120.745H172.547ZM117.487 188.599C122.919 201.199 129.585 210.339 136.91 215.28C121.931 211.739 108.27 202.269 97.4058 188.599H117.487ZM75.5137 151.79C78.9703 163.978 84.4022 175.424 91.5624 185.882H76.3367C66.7898 176.083 59.2181 164.554 54.1155 151.79H75.5137ZM79.0527 188.599H93.4554C101.439 199.222 111.15 207.539 121.849 212.892C105.8 208.363 91.0686 200.046 78.9704 188.599H79.0527Z" fill="#00AE4D"/>
<path d="M112.796 164.883C111.232 168.589 110.409 171.801 128.269 179.459C146.128 187.117 180.118 198.234 181.682 194.528C183.246 190.823 151.807 173.612 134.03 166.036C116.253 158.46 114.36 161.178 112.796 164.883Z" fill="#00AE4D"/>
<path d="M293.282 46.3036H292.541C291.307 71.8312 287.933 75.2074 262.419 76.4427L262.255 77.1838C287.768 78.419 291.142 81.7952 292.377 107.323H293.118C294.352 81.7952 297.726 78.419 323.24 77.1838L323.404 76.4427C297.891 75.2074 294.517 71.8312 293.282 46.3036Z" fill="white"/>
<path d="M75.596 111.028L33.7048 67.3021C33.4578 67.0551 33.1287 66.7257 32.7995 66.3963C30.9065 64.7493 29.4251 62.773 28.2729 60.5496C26.7092 56.9264 23.5817 55.9382 21.5242 55.2794C20.372 54.8677 19.6313 54.6206 19.3844 54.2913C19.0552 53.7148 18.8083 53.056 18.6437 52.3973C17.903 50.2562 16.6685 46.5506 12.2242 45.4801C11.1543 45.2331 9.50829 44.0802 8.10917 37.3277L0.619751 38.8923C1.85427 44.5743 3.99413 51.3267 10.3313 52.8913C10.5782 52.8913 10.7428 52.8913 11.3189 54.8677C11.6481 56.0205 12.1419 57.1734 12.8003 58.2439C14.5287 61.0437 17.3268 61.9495 19.1375 62.526C20.7012 63.0201 21.0304 63.1847 21.195 63.5141C22.6764 66.6433 24.7339 69.4431 27.3676 71.8312L69.9172 116.216L75.4314 110.946H75.596V111.028Z" fill="#F8993A"/>
<path d="M69.1765 13.2823C67.8596 17.6467 70.3286 20.6112 71.8101 22.3405C72.3039 22.8346 72.7154 23.411 73.0446 23.9875C73.2092 24.3992 73.0446 25.1403 72.7977 26.3755C72.3039 28.5166 71.5632 31.7281 73.7853 34.8573C75.1021 36.916 76.0897 39.3041 76.5012 41.6921C76.5012 42.1039 76.6658 42.5156 76.8304 42.9273L83.9906 69.1137C80.7809 68.8667 77.9004 71.3371 77.6535 74.5487C77.4065 77.7602 79.8756 80.6423 83.0853 80.8894C84.4021 80.8894 85.8013 80.6423 86.8712 79.8189L92.7145 101.311L98.8048 99.6646C99.7924 100.735 100.78 101.723 101.768 102.629L92.7145 105.099L100.533 135.074L79.7933 113.417L72.3862 120.169L102.92 150.967L113.701 144.873L102.838 103.535C105.965 106.252 108.928 107.899 111.15 108.311C118.722 111.523 141.93 105.264 148.021 102.876C154.934 100.076 158.308 92.171 155.428 85.1714C152.63 78.2543 144.811 74.9604 137.898 77.6778C133.207 79.5718 120.45 88.7124 113.454 96.7001C111.808 92.8297 109.669 89.1241 107.117 85.7479C102.261 79.2424 96.8296 74.4663 92.7145 72.9017L83.9906 40.951L83.7437 39.8805C83.0853 36.5042 81.7685 33.2104 79.7933 30.3282C79.6287 30.0812 79.6286 29.5871 80.0401 28.0225C80.4517 26.1285 81.1924 23.3287 79.6286 20.3642C79.0525 19.2937 78.3118 18.2232 77.4888 17.3174C76.2543 15.8351 76.2543 15.6704 76.3366 15.4234C78.1472 9.41203 73.9499 4.47119 69.0941 0.0244446L63.9092 5.62405C69.0941 10.4002 69.2588 12.2942 69.0118 13.2H69.1765V13.2823Z" fill="#F8993A"/>
<path d="M203.245 104.852C199.788 106.335 205.385 107.817 211.393 109.217C206.619 114.817 204.315 122.722 203.821 131.121C229.005 129.886 232.462 126.51 233.696 101.641C230.24 101.147 226.701 101.229 223.326 101.97C221.186 102.464 219.129 103.206 217.236 104.276C214.767 100.406 214.602 97.3589 214.191 94.7238C213.779 91.5946 211.475 94.3121 210.981 96.7825C210.487 99.2529 211.228 99.3352 208.018 98.4294C204.808 97.5236 202.422 99.1705 205.22 101.394C208.018 103.617 207.607 102.876 203.245 104.77V104.852Z" fill="#E8380D"/>
<path d="M262.502 116.628C263.818 66.0669 230.733 18.7996 179.871 4.7182C148.103 -4.09295 114.195 1.50666 86.8713 19.9524L88.7642 30.1635C98.3935 23.0816 109.175 17.7291 120.615 14.3528C109.586 20.1995 99.5457 29.1753 91.3156 40.951L93.5377 42.5156C105.636 25.1403 121.273 14.1058 138.309 10.7295H138.968C131.972 14.7646 125.47 22.5875 119.956 33.7044L122.425 34.9396C129.832 19.7877 139.132 11.1413 148.762 10.4002V31.8928H151.478V10.3178C165.716 11.3883 179.131 30.0811 186.867 59.6438L189.501 58.985C187.937 52.809 185.962 46.7976 183.575 40.951H204.973C212.38 51.3267 217.894 62.773 221.433 75.0427H206.29V77.7602H222.174C223.82 83.8539 225.055 90.0299 225.878 96.2883L228.594 95.9589C227.771 89.8652 226.618 83.7715 225.055 77.8425H246.617C250.321 87.9712 252.461 98.594 252.955 109.381L262.419 116.793V116.628H262.502ZM220.61 38.1512H206.455C198.801 27.9401 189.583 19.7877 179.46 14.4352C194.85 19.0466 208.924 27.1166 220.61 38.1512ZM182.587 38.1512C176.826 24.9756 169.748 15.588 161.93 10.8942C177.649 14.1881 191.887 23.9051 203.08 38.1512H182.587ZM224.396 74.9604C220.94 62.773 215.59 51.3267 208.43 40.8686H223.409C233.038 50.6679 240.61 62.1965 245.712 74.9604H224.396Z" fill="#F8993A"/>
<path d="M252.955 108.805C247.276 105.264 241.021 102.794 234.355 101.723C235.589 126.592 239.128 129.886 264.394 131.121L264.23 131.862C238.716 133.098 235.342 136.474 234.108 162.001H233.367C232.132 136.556 228.84 133.098 203.574 131.862C203.327 137.544 203.821 143.144 205.055 148.661C209.253 167.354 227.853 179.13 246.535 174.93C265.217 170.73 276.986 152.12 272.789 133.427C271.39 127.251 267.522 121.322 262.337 116.216C259.374 113.499 256.164 111.028 252.872 108.805H252.955Z" fill="#E8380D"/>
</svg>
